<svg xmlns="http://www.w3.org/2000/svg" width="1692" height="1096" viewBox="0 0 1692 1096">
<path d="M0 0 C2.55 1.28 4.77 2.56 7.12 4.12 C7.82 4.57 8.51 5.02 9.22 5.47 C15.58 9.62 21.79 14 27.99 18.39 C35.73 23.86 43.6 29.11 51.52 34.32 C57.2 38.08 62.76 41.97 68.26 46 C72.85 49.35 77.52 52.58 82.19 55.81 C83.19 56.51 84.2 57.21 85.24 57.93 C91.44 62.23 97.65 66.51 103.87 70.78 C109.7 74.78 115.51 78.83 121.31 82.88 C128.42 87.82 135.53 92.75 142.69 97.62 C150.01 102.62 157.27 107.68 164.52 112.77 C170.15 116.72 175.82 120.62 181.5 124.5 C195.29 133.91 208.96 143.49 222.47 153.3 C228.75 157.84 235.09 162.27 241.51 166.61 C243.61 168.03 245.65 169.49 247.68 171.02 C248.42 171.57 249.17 172.12 249.94 172.69 C250.52 173.15 251.11 173.6 251.71 174.07 C259.36 177.17 268.79 174.14 276.6 172.72 C298.28 168.82 320.08 166.14 342 164 C342.86 163.92 343.73 163.83 344.62 163.74 C389.22 159.45 435.37 158.72 480 163 C481.39 163.13 482.78 163.25 484.17 163.37 C511.56 165.85 539.04 169.51 566 175 C573.05 176.11 576.45 173.86 582.14 169.8 C582.73 169.37 583.32 168.94 583.93 168.49 C587.33 166.04 590.79 163.66 594.24 161.27 C597.27 159.17 600.3 157.06 603.33 154.95 C607.87 151.78 612.43 148.63 617 145.5 C626.37 139.07 635.69 132.57 645.01 126.08 C649.84 122.72 654.67 119.36 659.5 116 C661.42 114.67 663.33 113.33 665.25 112 C745.75 56 745.75 56 748.63 54 C750.54 52.67 752.45 51.34 754.37 50 C759.2 46.65 764.03 43.29 768.86 39.93 C777.22 34.12 785.57 28.3 793.91 22.46 C797.94 19.64 801.97 16.82 806 14 C806.77 13.46 807.53 12.93 808.32 12.38 C810.5 10.85 812.69 9.33 814.88 7.81 C815.19 7.59 815.19 7.59 816.8 6.46 C827.59 -1 827.59 -1 834 0 C836.93 3.02 837.43 5.42 837.69 9.55 C837.77 10.65 837.84 11.76 837.92 12.9 C837.99 14.1 838.05 15.29 838.12 16.53 C838.2 17.78 838.28 19.02 838.36 20.31 C839.15 33.39 839.62 46.48 840.04 59.58 C840.12 62.13 840.2 64.69 840.29 67.24 C840.46 72.56 840.64 77.87 840.8 83.18 C841.02 89.87 841.24 96.55 841.46 103.23 C841.96 118.41 842.44 133.58 842.9 148.76 C842.99 151.74 843.08 154.72 843.18 157.7 C844 184.32 844.22 210.93 844.24 237.56 C844.24 242.09 844.26 246.61 844.28 251.14 C844.44 283.54 843.38 315.68 841 348 C840.97 348.42 840.97 348.42 840.81 350.57 C839.93 362.66 838.97 374.74 837.97 386.81 C837.23 395.87 836.57 404.93 836 414 C835.93 415.03 835.85 416.07 835.78 417.13 C834.67 434.28 838.64 449 843.62 465.31 C844.41 467.94 845.18 470.58 845.95 473.21 C847.33 477.9 848.71 482.58 850.11 487.26 C853.74 499.42 857.16 511.64 860.56 523.88 C860.85 524.91 861.14 525.94 861.43 527 C861.57 527.51 861.57 527.51 862.29 530.09 C862.57 531.08 862.84 532.08 863.13 533.11 C863.67 535.05 864.21 536.99 864.75 538.93 C866.14 543.96 867.56 548.98 869.02 553.99 C875.23 575.37 878.01 590.36 869 611 C868.32 613 867.65 615 867 617 C867.71 616.85 868.42 616.7 869.15 616.54 C875.97 615.08 882.8 613.63 889.62 612.17 C893.12 611.43 896.62 610.68 900.13 609.93 C901.49 609.64 902.85 609.35 904.21 609.06 C904.88 608.92 905.55 608.77 906.24 608.63 C909.61 607.91 912.98 607.19 916.35 606.48 C917.01 606.34 917.67 606.2 918.35 606.05 C919 605.91 919.66 605.77 920.33 605.63 C925.25 604.59 930.16 603.53 935.07 602.46 C937.22 602 939.36 601.54 941.5 601.07 C942.45 600.86 943.41 600.65 944.39 600.43 C957.77 597.58 957.77 597.58 962.94 600.88 C967.04 605.1 966.59 610.06 966.65 615.65 C966.41 624.02 963.27 629.15 958.52 635.81 C956.76 638.35 955.15 640.95 953.53 643.58 C952.31 645.55 951.09 647.53 949.88 649.5 C949.3 650.43 948.73 651.36 948.14 652.33 C940.97 663.68 934.88 668.52 921.75 671.82 C918.17 672.61 914.58 673.34 910.99 674.06 C909.65 674.33 908.31 674.61 906.97 674.88 C903.46 675.6 899.95 676.3 896.44 677.01 C892.95 677.71 889.46 678.42 885.97 679.13 C884.59 679.41 883.21 679.69 881.83 679.97 C879.12 680.53 876.4 681.08 873.68 681.64 C867.4 682.93 861.13 684.17 854.82 685.27 C853.71 685.47 852.61 685.67 851.47 685.88 C849.44 686.25 847.4 686.6 845.36 686.91 C840.63 687.8 837.78 688.61 834.81 692.54 C833.2 695.19 831.85 697.84 830.89 700.8 C829.08 705.95 826.81 710.83 824.49 715.77 C822.27 720.49 820.13 725.24 818 730 C833.83 731.26 849.68 731.33 865.55 731.55 C869.19 731.6 872.82 731.66 876.46 731.72 C877.01 731.73 877.01 731.73 879.78 731.76 C898.61 732.06 898.61 732.06 903.14 735.13 C906.65 740.55 906.1 746.83 905 753 C903.36 758.08 900.77 762.47 898 767 C897.44 767.95 896.87 768.9 896.29 769.87 C894.36 773.11 892.41 776.34 890.44 779.56 C889.8 780.61 889.16 781.66 888.51 782.74 C881.06 794.65 881.06 794.65 874 797 C872.02 797.1 870.03 797.13 868.05 797.13 C867.44 797.13 867.44 797.13 864.34 797.14 C863 797.13 861.66 797.13 860.31 797.12 C859.63 797.12 858.94 797.12 858.23 797.12 C849.18 797.11 840.15 796.96 831.11 796.63 C828.48 796.54 825.85 796.47 823.22 796.41 C816.93 796.27 810.73 796.01 804.47 795.32 C780.41 792.76 780.41 792.76 771.35 799.75 C764.26 805.8 756.2 813.61 752 822 C752.55 822.09 753.1 822.18 753.66 822.28 C761.62 823.72 769.21 826.14 776.89 828.61 C778.32 829.07 779.75 829.53 781.18 829.98 C784.92 831.18 788.66 832.38 792.41 833.58 C795.43 834.55 798.45 835.51 801.47 836.48 C805.13 837.65 808.79 838.82 812.45 839.99 C812.79 840.1 812.79 840.1 814.5 840.64 C818.36 841.88 822.22 843.13 826.08 844.38 C828.08 845.03 830.08 845.65 832.09 846.28 C833.43 846.71 834.76 847.14 836.1 847.56 C836.69 847.75 836.69 847.75 839.68 848.69 C851.78 853.46 855.34 864.37 860.62 875.35 C861.62 877.43 862.64 879.51 863.65 881.58 C868.45 891.46 872.54 900.1 872.44 911.25 C872.46 912.03 872.48 912.8 872.5 913.6 C872.49 917.38 872.21 919.6 870.41 922.98 C867.22 925.65 865.12 925.72 861 926 C857.53 925.31 857.53 925.31 853.71 924.1 C853.35 923.99 853.35 923.99 851.52 923.42 C849.01 922.63 846.5 921.82 844 921 C842.08 920.38 840.15 919.76 838.23 919.14 C831.33 916.91 824.45 914.64 817.56 912.38 C814.96 911.52 812.35 910.66 809.74 909.81 C795.35 905.08 780.97 900.33 766.58 895.59 C762.8 894.34 759.03 893.1 755.25 891.85 C754.32 891.55 753.39 891.24 752.43 890.92 C750.56 890.31 748.68 889.69 746.81 889.07 C741.25 887.24 735.68 885.4 730.12 883.57 C726.63 882.42 723.15 881.27 719.66 880.12 C718.02 879.58 716.39 879.04 714.75 878.5 C712.51 877.75 710.26 877.01 708.01 876.27 C707.36 876.06 706.7 875.84 706.02 875.62 C697.44 872.79 697.44 872.79 694.94 873.99 C694.22 874.5 693.51 875.01 692.77 875.53 C691.98 876.09 691.19 876.65 690.38 877.23 C686.75 879.93 683.17 882.69 679.62 885.5 C671.73 891.71 663.69 897.7 655.59 903.63 C651.35 906.74 647.14 909.89 642.94 913.06 C634.38 919.5 625.72 925.78 617 932 C616.25 932.53 615.51 933.07 614.74 933.61 C578.08 959.72 540.04 984.32 500.41 1005.69 C497.6 1007.22 494.8 1008.76 492 1010.3 C478.35 1017.74 464.55 1024.78 450.56 1031.56 C449.78 1031.94 449 1032.32 448.19 1032.71 C444.49 1034.51 440.78 1036.29 437.06 1038.06 C434.46 1039.29 431.89 1040.56 429.33 1041.86 C417.58 1047.68 417.58 1047.68 411 1046 C405.61 1043.96 400.48 1041.49 395.31 1038.94 C393.8 1038.21 392.29 1037.48 390.78 1036.75 C386.92 1034.89 383.07 1033 379.23 1031.1 C377.1 1030.05 374.97 1029.01 372.84 1027.96 C324.8 1004.45 278.39 977.26 234.47 946.72 C231.77 944.84 229.06 942.97 226.35 941.09 C214.46 932.87 202.67 924.53 191 916 C190.25 915.45 189.5 914.9 188.72 914.34 C180.45 908.3 172.23 902.21 164.11 895.98 C162.33 894.62 160.54 893.28 158.75 891.95 C154.46 888.76 150.47 885.56 146.69 881.78 C142.55 877.84 138.66 874.38 133 873 C125.73 873.35 119.07 876.09 112.38 878.76 C104.3 881.94 96.13 884.73 87.89 887.43 C86.34 887.95 84.79 888.46 83.25 888.97 C79.05 890.36 74.86 891.74 70.66 893.12 C67.02 894.32 63.39 895.52 59.75 896.72 C48.2 900.54 36.64 904.35 25.08 908.15 C19.09 910.12 13.1 912.1 7.1 914.07 C2.46 915.6 -2.18 917.13 -6.83 918.66 C-7.67 918.94 -8.51 919.22 -9.38 919.5 C-10.95 920.02 -12.51 920.53 -14.07 921.04 C-14.77 921.27 -15.46 921.5 -16.18 921.74 C-16.83 921.95 -17.48 922.17 -18.16 922.39 C-19.88 922.96 -21.6 923.55 -23.32 924.15 C-26.35 925.11 -28.95 925.33 -32.12 925.38 C-33.14 925.4 -34.15 925.43 -35.2 925.46 C-38.69 924.89 -39.81 923.72 -42 921 C-43.69 917.63 -43.31 913.89 -43.38 910.19 C-43.41 909.4 -43.45 908.61 -43.49 907.8 C-43.67 895.41 -36.77 884 -31.5 873.12 C-30.94 871.95 -30.39 870.78 -29.82 869.58 C-24.67 858.9 -21.08 852.41 -9.75 848.15 C-7.29 847.32 -4.82 846.53 -2.34 845.75 C-1.42 845.45 -0.49 845.16 0.46 844.86 C3.47 843.9 6.48 842.95 9.5 842 C11.59 841.34 13.68 840.68 15.77 840.01 C35.45 833.79 55.21 827.84 75 822 C75 820 75 820 73.52 818.31 C72.84 817.64 72.16 816.98 71.46 816.3 C70.71 815.56 69.97 814.83 69.2 814.07 C68.81 813.69 68.81 813.69 66.81 811.75 C58.1 803.23 58.1 803.23 55.07 799.52 C53 797 53 797 51 796 C49.38 795.9 47.75 795.87 46.13 795.87 C45.1 795.87 44.07 795.86 43.01 795.86 C42.44 795.86 42.44 795.86 39.56 795.88 C38.97 795.88 38.97 795.88 35.94 795.88 C27.02 795.92 18.11 796.15 9.19 796.43 C-3.2 796.82 -15.6 797.17 -27.99 797.29 C-29.52 797.3 -31.06 797.33 -32.59 797.36 C-34.72 797.4 -36.86 797.42 -38.99 797.43 C-40.2 797.44 -41.41 797.45 -42.66 797.47 C-48.3 796.68 -51.98 793.55 -55.36 789.11 C-59.4 783.68 -62.84 777.9 -66.25 772.06 C-67.32 770.23 -68.4 768.42 -69.48 766.6 C-77.28 753.36 -77.28 753.36 -77.38 745.5 C-77.4 744.4 -77.43 743.29 -77.46 742.16 C-76.9 738.34 -75.66 736.73 -73 734 C-66.31 730.66 -56.31 731.82 -48.95 731.72 C-47.92 731.7 -46.9 731.68 -45.85 731.66 C-42.61 731.6 -39.37 731.55 -36.12 731.5 C-20.73 731.25 -5.37 730.83 10 730 C9.76 729.49 9.76 729.49 8.56 726.88 C6.8 723.05 5.03 719.21 3.27 715.38 C2.51 713.72 1.75 712.06 0.99 710.41 C-0.11 708.02 -1.21 705.63 -2.3 703.24 C-2.64 702.51 -2.98 701.77 -3.33 701.02 C-5.14 697.07 -6.71 693.16 -8 689 C-8.66 688.9 -9.33 688.79 -10.01 688.69 C-19.2 687.21 -28.3 685.35 -37.41 683.45 C-38.22 683.28 -39.04 683.11 -39.88 682.93 C-44.18 682.03 -48.47 681.13 -52.77 680.23 C-57.18 679.31 -61.58 678.4 -65.99 677.48 C-69.41 676.77 -72.84 676.06 -76.26 675.34 C-77.88 675 -79.5 674.66 -81.13 674.32 C-108.53 668.68 -108.53 668.68 -116.04 657.77 C-117.1 656.12 -118.15 654.47 -119.19 652.81 C-119.47 652.37 -119.47 652.37 -120.87 650.16 C-122.02 648.34 -123.16 646.52 -124.3 644.7 C-125.93 642.11 -127.59 639.53 -129.25 636.96 C-130.25 635.39 -131.25 633.82 -132.25 632.25 C-132.48 631.89 -132.48 631.89 -133.66 630.09 C-136.66 625.28 -137.66 621.67 -138 616 C-138.09 615.09 -138.18 614.18 -138.27 613.24 C-138.46 608.87 -138.47 605.92 -135.62 602.44 C-131.99 599.06 -130.16 598.8 -125.22 598.87 C-121.63 599.08 -118.21 599.79 -114.7 600.56 C-114.31 600.64 -114.31 600.64 -112.32 601.06 C-109.75 601.61 -107.18 602.16 -104.61 602.72 C-102.81 603.1 -101.01 603.48 -99.21 603.86 C-94.5 604.86 -89.79 605.87 -85.08 606.88 C-77.52 608.5 -69.96 610.11 -62.4 611.71 C-59.76 612.27 -57.12 612.84 -54.48 613.41 C-52.87 613.75 -51.26 614.1 -49.65 614.44 C-48.92 614.6 -48.18 614.76 -47.42 614.92 C-44.55 615.53 -41.95 616 -39 616 C-39.24 615.42 -39.47 614.83 -39.72 614.23 C-40.79 611.57 -41.87 608.91 -42.94 606.25 C-43.31 605.33 -43.68 604.41 -44.07 603.46 C-44.43 602.57 -44.78 601.68 -45.15 600.77 C-45.48 599.95 -45.81 599.13 -46.15 598.29 C-50.44 586.71 -47.69 574.88 -44.22 563.46 C-43.82 562.08 -43.42 560.7 -43.02 559.31 C-42.16 556.38 -41.3 553.44 -40.42 550.51 C-39.04 545.88 -37.69 541.24 -36.34 536.6 C-35.88 535.02 -35.42 533.44 -34.96 531.86 C-34.73 531.07 -34.5 530.28 -34.26 529.47 C-33.56 527.07 -32.86 524.67 -32.16 522.26 C-27.86 507.58 -23.69 492.85 -19.59 478.11 C-18.53 474.28 -17.46 470.46 -16.38 466.63 C-14.82 461.05 -13.29 455.45 -11.78 449.85 C-11.08 447.29 -10.35 444.74 -9.62 442.19 C-6.69 431.67 -6.91 422.31 -7.94 411.5 C-8.09 409.69 -8.24 407.89 -8.38 406.08 C-8.71 402.03 -9.06 397.99 -9.41 393.95 C-10.4 382.46 -11.25 370.95 -12.13 359.46 C-12.51 354.48 -12.89 349.5 -13.28 344.52 C-19.27 268.25 -16.54 191.83 -14.13 115.47 C-14.06 113.39 -14 111.32 -13.93 109.24 C-13.1 82.81 -12.26 56.38 -11.12 29.95 C-11.04 28.12 -10.96 26.29 -10.89 24.46 C-10.79 21.98 -10.68 19.51 -10.56 17.03 C-10.53 16.33 -10.51 15.62 -10.48 14.9 C-10.23 10.01 -9.43 5.66 -8 1 C-5.11 -0.44 -3.22 -0.31 0 0 Z M13 41 C11.55 66.8 10.41 92.61 9.53 118.44 C9.44 121.25 9.34 124.06 9.24 126.86 C8.87 137.75 8.5 148.64 8.15 159.52 C8.02 163.3 7.9 167.09 7.77 170.87 C6.98 194.65 6.88 218.44 6.82 242.23 C6.81 244.62 6.8 247.01 6.79 249.4 C6.61 291.61 9.79 333.35 13.69 375.35 C14.92 388.56 16.06 401.77 17 415 C17.05 415.72 17.1 416.43 17.16 417.17 C18.54 436.84 14.99 453.88 9.33 472.5 C8.23 476.13 7.18 479.77 6.13 483.41 C4.36 489.51 2.57 495.59 0.76 501.67 C-2.04 511.08 -4.75 520.52 -7.46 529.96 C-7.9 531.5 -8.34 533.04 -8.78 534.58 C-9.43 536.85 -10.08 539.11 -10.72 541.37 C-12.18 546.46 -13.65 551.55 -15.12 556.63 C-15.31 557.31 -15.51 557.99 -15.71 558.69 C-16.63 561.87 -17.55 565.04 -18.48 568.22 C-18.79 569.32 -19.11 570.43 -19.44 571.57 C-19.72 572.52 -20 573.48 -20.29 574.47 C-24.52 589.49 -16.91 601.47 -10.75 615.12 C-9.68 617.5 -8.61 619.88 -7.55 622.26 C-7.08 623.29 -6.62 624.32 -6.14 625.39 C-3.82 630.71 -3.01 635.22 -5 640.81 C-7.81 643.88 -11.02 644.42 -15 645 C-18.56 644.77 -18.56 644.77 -22.44 644.04 C-23.18 643.91 -23.93 643.77 -24.7 643.63 C-27.47 643.11 -30.24 642.56 -33 642 C-34.17 641.77 -35.35 641.53 -36.56 641.29 C-45.64 639.49 -54.72 637.63 -63.79 635.77 C-69.65 634.56 -75.51 633.36 -81.37 632.16 C-83.41 631.74 -85.44 631.32 -87.48 630.91 C-88.7 630.65 -89.92 630.4 -91.18 630.15 C-92.26 629.92 -93.34 629.7 -94.45 629.47 C-97 629 -97 629 -99 629 C-97.47 632.76 -95.36 635.73 -92 638 C-88.18 639.35 -84.28 640.07 -80.31 640.83 C-79.15 641.07 -77.98 641.31 -76.79 641.55 C-74.3 642.06 -71.81 642.56 -69.31 643.05 C-65.42 643.82 -61.54 644.6 -57.66 645.4 C-52.5 646.46 -47.34 647.51 -42.18 648.55 C-33.51 650.3 -24.84 652.08 -16.19 653.95 C-14 654.42 -11.81 654.88 -9.61 655.33 C5.52 658.53 5.52 658.53 10.48 664.9 C12.15 667.53 13.57 670.23 15 673 C15.71 674.34 16.41 675.69 17.12 677.03 C19.58 681.77 21.99 686.54 24.38 691.31 C24.8 692.15 25.22 693 25.65 693.86 C44.7 731.96 44.7 731.96 43 746 C41.2 748.93 40.06 750.47 37 752 C28.93 753.32 20.68 753.2 12.52 753.28 C11.14 753.3 9.77 753.32 8.39 753.34 C3.31 753.41 -1.76 753.47 -6.83 753.53 C-11.13 753.58 -15.44 753.63 -19.74 753.69 C-21.74 753.72 -23.74 753.74 -25.74 753.76 C-31.91 753.84 -37.9 754.05 -44 755 C-43.18 756.49 -43.18 756.49 -39 764 C-26.37 764.16 -13.76 763.89 -1.14 763.49 C0.48 763.44 2.1 763.39 3.72 763.34 C10.44 763.14 17.16 762.93 23.88 762.7 C28.04 762.56 32.2 762.44 36.36 762.31 C37.93 762.27 39.49 762.22 41.06 762.16 C56.33 761.62 64.49 763.64 75.95 774.1 C80.46 778.33 84.79 782.74 89.11 787.15 C93 791.09 97.01 794.81 101.2 798.43 C109.05 805.28 116.25 813.59 117.21 824.4 C116.99 827.55 116.3 829.63 114.29 832.08 C111.67 834.28 109.52 835.16 106.27 836.24 C105.02 836.66 103.78 837.07 102.5 837.5 C101.08 837.96 99.67 838.42 98.25 838.88 C96.74 839.37 95.23 839.87 93.72 840.37 C81.83 844.25 69.87 847.89 57.91 851.54 C57.11 851.78 56.31 852.03 55.49 852.28 C47.32 854.77 39.15 857.25 30.97 859.71 C27.85 860.65 24.72 861.6 21.6 862.54 C20.13 862.99 18.66 863.43 17.19 863.87 C-3.65 870.09 -3.65 870.09 -6.46 874.06 C-7.88 876.72 -9 878.96 -9 882 C-1.26 880.16 6.29 878.04 13.82 875.48 C14.32 875.31 14.32 875.31 16.84 874.46 C18.98 873.75 21.11 873.03 23.24 872.31 C28.94 870.39 34.63 868.48 40.33 866.57 C41.48 866.18 42.64 865.8 43.82 865.4 C59.08 860.29 74.39 855.32 89.7 850.37 C94.48 848.82 99.24 847.26 104 845.69 C106.87 844.74 109.75 843.79 112.63 842.85 C114.55 842.21 116.46 841.57 118.38 840.93 C128.29 837.69 136.24 835.23 146 840 C149.12 841.91 151.99 844.07 154.88 846.31 C156.55 847.58 158.22 848.85 159.9 850.11 C160.75 850.76 161.59 851.41 162.46 852.07 C166.44 855.1 170.47 858.05 174.5 861 C176.08 862.16 177.66 863.33 179.25 864.5 C180.03 865.07 180.81 865.65 181.62 866.25 C184.01 868.01 186.4 869.77 188.79 871.54 C196.56 877.28 204.36 883.01 212.19 888.69 C212.84 889.16 213.49 889.64 214.16 890.12 C226.98 899.39 240.15 908.17 253.31 916.94 C253.67 917.18 253.67 917.18 255.49 918.39 C266.56 925.76 277.67 933.04 289 940 C290.04 940.64 291.09 941.28 292.16 941.95 C306.52 950.77 320.96 959.44 335.66 967.68 C337.89 968.94 340.12 970.2 342.34 971.46 C360.41 981.67 378.95 991.01 397.5 1000.31 C398.61 1000.87 399.72 1001.43 400.86 1002 C401.89 1002.51 402.91 1003.02 403.97 1003.55 C404.42 1003.78 404.42 1003.78 406.7 1004.92 C411.14 1007.01 415.15 1007.56 420 1007 C422.66 1005.95 424.93 1004.91 427.4 1003.54 C428.81 1002.8 430.22 1002.06 431.62 1001.32 C432.34 1000.94 433.07 1000.55 433.81 1000.16 C437.38 998.27 441 996.51 444.63 994.74 C461.71 986.3 478.58 977.68 495 968 C495.53 967.69 495.53 967.69 498.21 966.12 C506.17 961.45 514.09 956.74 522 952 C523 951.4 524 950.8 525.03 950.18 C546.79 937.12 568.18 923.51 589 909 C589.81 908.44 590.63 907.87 591.46 907.29 C607.93 895.86 624.19 884.21 640.1 872.02 C648.25 865.78 656.5 859.69 664.79 853.62 C666.98 852.02 669.16 850.4 671.34 848.79 C672.03 848.29 672.71 847.78 673.41 847.26 C674.67 846.33 675.93 845.4 677.19 844.46 C683.8 839.59 688.72 836.22 697.28 837.48 C710.3 840.9 723.04 845.14 735.81 849.38 C738.26 850.18 740.7 850.99 743.15 851.79 C746.86 853.02 750.57 854.24 754.28 855.46 C761.92 857.99 769.56 860.49 777.21 862.98 C777.68 863.13 777.68 863.13 780.06 863.91 C783.68 865.08 787.29 866.25 790.9 867.42 C799.47 870.2 808.03 872.99 816.55 875.9 C817.2 876.12 817.85 876.34 818.52 876.57 C821.46 877.57 824.4 878.58 827.33 879.6 C828.31 879.94 829.3 880.27 830.31 880.62 C831.15 880.91 832 881.21 832.86 881.51 C835 882 835 882 838 881 C834.88 872.22 834.88 872.22 830.86 869.62 C828.13 868.6 825.42 867.84 822.59 867.13 C820.33 866.49 818.06 865.84 815.8 865.19 C815.18 865.02 815.18 865.02 812.03 864.15 C805.29 862.26 798.64 860.08 791.97 857.96 C787.85 856.65 783.74 855.35 779.62 854.06 C777.94 853.53 776.26 853 774.58 852.47 C771.18 851.4 767.78 850.33 764.38 849.27 C760.19 847.95 756 846.63 751.81 845.31 C750.24 844.82 748.67 844.33 747.11 843.83 C742.79 842.48 738.48 841.11 734.18 839.71 C732.67 839.22 731.16 838.73 729.64 838.26 C727.29 837.51 724.94 836.74 722.6 835.97 C721.88 835.74 721.16 835.52 720.42 835.29 C717.11 834.17 715.23 833.29 713.06 830.51 C710.73 824.99 711.93 820.69 714.02 815.32 C716.73 808.99 720.28 804.75 725.2 800.02 C725.59 799.62 725.59 799.62 727.58 797.64 C729.24 795.99 730.91 794.35 732.58 792.73 C735.12 790.26 737.62 787.77 740.12 785.27 C762.73 762.88 762.73 762.88 771.02 762.87 C771.86 762.87 772.71 762.86 773.57 762.86 C774.5 762.86 775.42 762.87 776.38 762.87 C777.35 762.87 778.32 762.87 779.32 762.86 C781.44 762.86 783.55 762.87 785.67 762.87 C789.02 762.88 792.36 762.87 795.71 762.87 C807.57 762.87 819.41 763.04 831.27 763.47 C833.56 763.55 835.86 763.63 838.15 763.7 C842.54 763.85 846.93 764.04 851.31 764.26 C853.32 764.33 855.33 764.4 857.33 764.46 C858.24 764.52 859.15 764.58 860.09 764.64 C866.12 764.79 866.12 764.79 868.71 762.48 C872 758.04 872 758.04 872 755 C864.59 754.03 857.29 753.8 849.82 753.72 C848.57 753.7 847.32 753.68 846.04 753.66 C842.07 753.6 838.1 753.55 834.12 753.5 C828.9 753.43 823.67 753.36 818.45 753.28 C817.26 753.27 816.08 753.25 814.86 753.24 C793.23 752.92 793.23 752.92 788 749 C785.6 745.58 784.83 743.7 785.25 739.54 C785.98 736.28 786.95 733.17 788 730 C788.39 728.76 788.77 727.51 789.17 726.23 C792.99 714.67 798.3 703.8 803.62 692.88 C803.81 692.49 803.81 692.49 804.76 690.55 C818.62 662.17 818.62 662.17 831 657 C835.08 655.78 839.21 654.92 843.39 654.1 C844.56 653.85 845.73 653.61 846.94 653.36 C850.71 652.58 854.48 651.82 858.25 651.06 C860.84 650.53 863.42 650 866.01 649.46 C876.73 647.25 887.47 645.09 898.21 642.99 C898.93 642.85 899.64 642.71 900.38 642.57 C903.48 641.96 906.59 641.36 909.7 640.79 C917.56 639.28 923.2 637.83 928 631 C927.67 630.34 927.34 629.68 927 629 C926.54 629.09 926.54 629.09 924.2 629.57 C915.43 631.35 906.66 633.11 897.89 634.87 C893.39 635.77 888.88 636.68 884.38 637.59 C880.02 638.48 875.66 639.35 871.3 640.22 C869.65 640.55 868 640.88 866.34 641.22 C841.81 646.25 841.81 646.25 835 642 C832.29 637.88 832.45 633.76 833 629 C833.89 625.7 835.15 622.63 836.5 619.5 C836.86 618.64 837.21 617.78 837.58 616.89 C839.36 612.62 841.25 608.43 843.28 604.27 C843.64 603.53 844 602.79 844.38 602.02 C845.06 600.64 845.76 599.27 846.47 597.91 C851.18 588.52 850.05 580.15 847.23 570.33 C847.08 569.77 847.08 569.77 846.3 566.92 C845.28 563.21 844.23 559.51 843.19 555.81 C842.46 553.21 841.75 550.61 841.03 548 C838.71 539.66 836.36 531.33 834 523 C833.59 521.56 833.19 520.12 832.78 518.68 C828.86 504.84 824.92 491 820.93 477.18 C820.23 474.73 819.53 472.28 818.83 469.83 C817.43 464.89 816.02 459.98 814.37 455.12 C806.15 430.34 811.99 401.7 814.31 376.24 C815.27 365.58 816.18 354.91 817.09 344.24 C817.17 343.2 817.26 342.16 817.35 341.09 C819.3 318.07 820.72 295.11 821 272 C821.02 270.85 821.03 269.7 821.05 268.52 C823.38 81.87 823.38 81.87 814 41 C808.63 43.93 803.74 47.25 798.81 50.88 C792.3 55.63 785.74 60.32 779.12 64.94 C778.71 65.23 778.71 65.23 776.6 66.7 C774.91 67.88 773.21 69.06 771.52 70.24 C768.23 72.54 764.94 74.85 761.65 77.15 C750.76 84.78 739.84 92.38 728.92 99.97 C723.16 103.97 717.4 107.98 711.64 111.99 C706.77 115.38 701.91 118.76 697.04 122.14 C687.76 128.59 678.49 135.04 669.27 141.57 C661.38 147.15 653.46 152.69 645.54 158.23 C642.24 160.53 638.94 162.84 635.64 165.15 C632.32 167.48 629 169.8 625.67 172.13 C622.81 174.13 619.95 176.15 617.09 178.16 C582.16 202.66 582.16 202.66 561.44 199.45 C558.22 198.88 555.01 198.3 551.81 197.7 C520.58 191.95 488.71 187.77 457 186 C456.1 185.95 455.21 185.89 454.29 185.83 C391.52 182.06 325.99 187.13 264.42 199.88 C254.25 201.94 246.11 201.54 237.19 195.84 C232.02 192.37 227.02 188.68 222 185 C218.98 182.81 215.96 180.62 212.94 178.44 C212.56 178.16 212.56 178.16 210.65 176.78 C204.62 172.42 198.51 168.19 192.37 163.99 C187.2 160.46 182.07 156.89 176.94 153.31 C175.97 152.64 175 151.96 174 151.27 C169.99 148.48 165.99 145.69 161.98 142.9 C142.53 129.35 142.53 129.35 133.81 123.38 C128 119.39 122.21 115.36 116.44 111.31 C101.68 100.97 86.91 90.63 72 80.5 C64.43 75.35 56.89 70.17 49.38 64.94 C48.9 64.61 48.9 64.61 46.5 62.94 C41.75 59.63 37.01 56.3 32.28 52.95 C31.37 52.31 30.46 51.66 29.52 51 C27.8 49.78 26.09 48.56 24.38 47.34 C23.61 46.8 22.85 46.25 22.05 45.7 C21.39 45.22 20.72 44.75 20.04 44.26 C17.78 42.86 15.48 41.96 13 41 Z " fill="#000000" transform="translate(443,25)" />
<path d="M0 0 C2.33 1.5 4.59 3.08 6.84 4.7 C7.67 5.28 8.5 5.87 9.36 6.47 C16.06 11.2 22.62 16.1 29.15 21.06 C33.78 24.56 38.5 27.92 43.23 31.27 C49.72 35.88 56.15 40.56 62.6 45.22 C64.86 46.86 67.12 48.49 69.39 50.12 C77.9 56.24 86.36 62.43 94.8 68.66 C102.38 74.25 110.02 79.77 117.66 85.27 C119.94 86.91 122.21 88.56 124.47 90.21 C131.81 95.53 139.16 100.83 146.59 106.01 C147.23 106.46 147.87 106.91 148.52 107.38 C159.28 114.82 167.74 114.48 180.18 112.35 C182.22 112.02 184.26 111.68 186.29 111.35 C187.36 111.17 188.43 111 189.52 110.81 C227.76 104.5 266.25 99.75 304.91 96.89 C306.09 96.8 307.27 96.7 308.49 96.6 C321.08 95.69 333.67 95.65 346.28 95.64 C347.47 95.64 348.65 95.64 349.88 95.64 C372.34 95.66 394.55 96.73 416.91 98.89 C417.35 98.93 417.35 98.93 419.61 99.15 C450.19 102.06 480.52 106.34 510.75 111.75 C511.13 111.82 511.13 111.82 513.09 112.17 C514.53 112.43 515.97 112.69 517.41 112.96 C527.78 114.83 534.09 114.34 542.93 108.57 C545.05 107.08 547.14 105.56 549.22 104.01 C549.99 103.45 550.77 102.88 551.56 102.3 C554.02 100.5 556.46 98.7 558.91 96.89 C560.49 95.72 562.08 94.55 563.67 93.38 C566.05 91.63 568.42 89.88 570.8 88.12 C578.38 82.53 586.01 77.02 593.66 71.51 C595.95 69.86 598.25 68.2 600.54 66.54 C607.32 61.64 614.1 56.74 620.91 51.89 C636.53 40.75 652.01 29.43 667.43 18.02 C695.5 -2.74 695.5 -2.74 701.91 -2.11 C705.39 0.11 707.42 2.05 708.91 5.89 C709.16 8.84 709.16 8.84 709.15 12.35 C709.16 13 709.16 13.65 709.16 14.32 C709.17 16.49 709.16 18.66 709.15 20.83 C709.15 22.39 709.15 23.95 709.16 25.51 C709.16 29.77 709.15 34.02 709.14 38.27 C709.13 42.78 709.14 47.28 709.14 51.78 C709.14 59.4 709.13 67.01 709.11 74.63 C709.1 82.34 709.09 90.05 709.09 97.76 C709.1 168.96 709.1 168.96 708.63 201.01 C708.6 203.25 708.57 205.5 708.55 207.75 C708.52 210.75 708.47 213.75 708.41 216.75 C708.41 217.61 708.4 218.46 708.4 219.34 C708.28 224.24 707.58 227.62 704.91 231.89 C701.47 234.81 697.42 236.26 692.91 236.01 C684.16 234.27 678.33 226.37 672.91 219.89 C672.91 223.8 674.18 227.09 675.42 230.75 C675.98 232.46 676.55 234.18 677.12 235.89 C677.43 236.82 677.74 237.75 678.06 238.71 C685.1 259.89 691.77 281.18 698.34 302.51 C700.22 308.6 702.1 314.68 703.97 320.76 C704.21 321.53 704.45 322.3 704.69 323.09 C708.54 335.54 712.44 347.97 716.37 360.4 C716.51 360.82 716.51 360.82 717.19 362.97 C719.56 370.46 721.93 377.95 724.3 385.43 C727.53 395.58 730.74 405.73 733.91 415.89 C734.11 416.55 734.32 417.21 734.53 417.88 C735.89 422.22 737.22 426.56 738.54 430.91 C738.87 431.97 739.2 433.03 739.54 434.12 C742.34 443.45 743.89 452.5 741.59 462.08 C741.42 462.84 741.24 463.59 741.06 464.37 C738.27 475.34 733.5 485.59 728.91 495.89 C728.3 497.27 727.69 498.66 727.08 500.04 C725.44 503.74 723.8 507.44 722.14 511.13 C721.49 512.58 720.85 514.03 720.2 515.48 C711.02 536.05 711.02 536.05 702.91 541.89 C700.06 542.96 700.06 542.96 696.74 543.79 C696.42 543.87 696.42 543.87 694.81 544.27 C685.04 546.67 675.18 548.68 665.35 550.73 C661.51 551.53 657.67 552.34 653.83 553.15 C646.29 554.74 638.76 556.32 631.22 557.89 C620.5 560.14 609.77 562.39 599.05 564.65 C597.72 564.93 596.38 565.21 595.05 565.49 C565.29 571.76 535.59 578.28 505.91 584.89 C530.77 581.72 530.77 581.72 540.46 580.01 C540.95 579.92 540.95 579.92 543.45 579.49 C546.71 578.92 549.97 578.34 553.22 577.76 C554.37 577.56 555.52 577.36 556.71 577.15 C573.23 574.25 589.72 571.19 606.19 568.04 C609.25 567.45 612.31 566.87 615.38 566.29 C624.54 564.54 633.7 562.78 642.86 561 C646.71 560.26 650.56 559.52 654.41 558.78 C656.21 558.44 658.01 558.09 659.81 557.73 C683.72 553.04 683.72 553.04 690.03 556.7 C692.37 559.42 692.85 561.38 693.27 564.92 C692.77 570.43 690.57 574.56 688.09 579.45 C687.6 580.45 687.11 581.45 686.6 582.48 C685.56 584.57 684.52 586.66 683.48 588.75 C681.95 591.8 680.46 594.87 678.97 597.94 C678.04 599.86 677.1 601.78 676.16 603.7 C675.95 604.14 675.95 604.14 674.88 606.35 C666.37 623.52 666.37 623.52 658.91 627.89 C653.43 629.52 648.51 630.16 642.79 630.03 C642.4 630.02 642.4 630.02 640.45 630 C637.91 629.96 635.37 629.91 632.83 629.87 C631.01 629.84 629.2 629.81 627.38 629.79 C622.59 629.72 617.79 629.65 613 629.56 C605.48 629.44 597.96 629.33 590.45 629.22 C588.58 629.19 586.71 629.16 584.84 629.14 C563.86 628.82 542.89 628.83 521.91 628.89 C523.08 629 524.25 629.11 525.45 629.22 C536.5 630.24 547.55 631.27 558.6 632.31 C564.28 632.84 569.96 633.37 575.64 633.89 C581.13 634.4 586.61 634.91 592.1 635.43 C594.18 635.63 596.27 635.82 598.36 636.01 C601.3 636.28 604.23 636.56 607.17 636.84 C608.02 636.91 608.88 636.99 609.76 637.07 C623.78 638.43 623.78 638.43 628.91 641.95 C631.52 645.79 632.39 649.26 631.91 653.89 C627.85 663.57 619.73 670.3 611.67 676.67 C608.95 678.85 606.4 681.15 603.84 683.51 C595.99 690.64 588.39 697.22 577.33 697.12 C572.35 696.65 567.66 695 562.91 693.51 C562.33 693.34 562.33 693.34 559.42 692.45 C556.27 691.49 553.11 690.51 549.96 689.53 C547.82 688.86 545.67 688.2 543.52 687.53 C534.31 684.67 525.11 681.79 515.91 678.89 C516.83 679.28 517.76 679.66 518.72 680.06 C522.2 681.52 525.67 683 529.14 684.49 C530.63 685.12 532.13 685.75 533.63 686.38 C552.09 694.09 552.09 694.09 557.47 702.26 C558.25 706.96 558.17 711.34 556.02 715.68 C551.02 722.34 542.85 726.51 535.91 730.89 C535.45 731.18 535.45 731.18 533.13 732.66 C523.2 738.97 513.25 745.26 503.03 751.08 C502.45 751.42 501.86 751.75 501.26 752.1 C492.63 756.92 483.76 759.66 474.09 761.58 C473.04 761.79 471.98 762 470.89 762.22 C467.9 762.8 464.91 763.35 461.91 763.89 C461.55 763.96 461.55 763.96 459.73 764.29 C445.2 766.77 432.52 757.81 420.03 751.33 C418.47 750.52 416.91 749.71 415.35 748.91 C404.23 743.15 393.18 737.28 382.24 731.19 C379.9 729.88 377.55 728.59 375.2 727.3 C373.75 726.5 372.3 725.69 370.84 724.89 C370.53 724.71 370.53 724.71 368.91 723.83 C363.36 720.72 358.99 718.21 356.52 712.13 C355.22 707.38 355.5 702.45 355.54 697.56 C355.54 696.38 355.54 695.19 355.54 693.97 C355.55 691.47 355.55 688.97 355.57 686.47 C355.59 682.67 355.59 678.87 355.59 675.07 C355.59 672.63 355.6 670.19 355.61 667.75 C355.61 666.62 355.6 665.5 355.6 664.34 C355.77 645.23 355.77 645.23 361.09 639.14 C361.72 638.41 362.34 637.69 362.98 636.94 C365.33 634.44 367.71 632 370.17 629.62 C371.93 627.86 373.54 626.03 375.16 624.14 C378.09 620.73 381.21 617.55 384.41 614.39 C388.13 610.72 391.7 606.98 395.08 602.99 C396.51 601.35 398 599.76 399.52 598.2 C400.43 597.25 401.34 596.3 402.28 595.33 C403.14 594.46 403.99 593.59 404.87 592.7 C407.41 589.19 407.81 587.22 407.91 582.89 C407.25 579.59 406.59 576.29 405.91 572.89 C366.97 572.89 328.03 572.89 287.91 572.89 C285.08 587.01 285.08 587.01 288.01 591.63 C289.44 593.47 290.95 595.18 292.53 596.89 C293.08 597.5 293.62 598.12 294.19 598.75 C297.46 602.39 300.82 605.93 304.34 609.33 C306.08 611.07 307.68 612.9 309.28 614.76 C311.87 617.77 314.58 620.6 317.41 623.39 C321.45 627.39 325.27 631.51 328.91 635.89 C329.19 636.23 329.19 636.23 330.6 637.92 C331.14 638.59 331.67 639.26 332.22 639.95 C332.46 640.25 332.46 640.25 333.65 641.74 C337.79 648.8 337.21 656.55 337.21 664.49 C337.21 665.8 337.22 667.1 337.22 668.45 C337.23 671.21 337.23 673.97 337.22 676.72 C337.22 680.25 337.23 683.77 337.26 687.29 C337.28 690.67 337.27 694.05 337.27 697.43 C337.28 698.68 337.29 699.94 337.3 701.24 C337.3 701.83 337.3 701.83 337.28 704.81 C337.28 705.84 337.28 706.87 337.28 707.94 C336.65 712.9 334.76 716.08 331.17 719.5 C327.87 722.05 324.32 724.1 320.66 726.08 C319.91 726.49 319.16 726.9 318.39 727.32 C304.99 734.62 291.48 741.7 277.98 748.8 C275.99 749.85 274.01 750.89 272.02 751.94 C268.57 753.76 265.11 755.58 261.66 757.39 C260.65 757.92 259.64 758.46 258.6 759.01 C245.45 765.87 236.9 765.17 222.59 762.14 C221.34 761.89 220.09 761.63 218.79 761.37 C208.48 759.22 198.8 756.39 189.66 751.08 C189 750.7 188.35 750.33 187.67 749.94 C179.44 745.16 171.52 739.87 163.58 734.62 C160.02 732.27 156.45 729.95 152.83 727.69 C152.06 727.2 151.29 726.72 150.49 726.21 C149.07 725.32 147.65 724.44 146.22 723.57 C141.38 720.5 137.52 717.12 134.91 711.89 C134.4 705.78 134.82 702.75 138.91 697.89 C142.87 694.3 146.98 692.3 151.83 690.22 C152.21 690.05 152.21 690.05 154.1 689.23 C156.47 688.19 158.84 687.16 161.22 686.14 C162.84 685.44 164.45 684.73 166.07 684.03 C170.01 682.31 173.96 680.6 177.91 678.89 C177.17 679.12 176.42 679.35 175.66 679.59 C168.78 681.73 161.9 683.86 155.02 685.99 C151.7 687.02 148.38 688.05 145.06 689.09 C141.51 690.19 137.96 691.29 134.41 692.39 C133.32 692.73 132.24 693.07 131.12 693.41 C130.11 693.73 129.1 694.04 128.06 694.36 C127.19 694.63 126.31 694.9 125.4 695.18 C116.29 697.76 109.34 697.26 100.91 692.89 C97.69 690.79 94.82 688.38 91.91 685.89 C90.82 684.98 89.74 684.07 88.65 683.16 C85.04 680.1 81.47 677.01 77.91 673.89 C77.33 673.39 76.76 672.89 76.17 672.37 C74.53 670.93 72.91 669.47 71.28 668.01 C70.81 667.59 70.81 667.59 68.43 665.46 C63.74 660.68 61.26 656.64 60.81 650 C60.95 646.82 61.81 645.26 63.91 642.89 C69.29 638.33 74.47 637.96 81.34 637.33 C82.49 637.21 83.64 637.09 84.82 636.97 C88.52 636.59 92.21 636.24 95.91 635.89 C98.24 635.65 100.57 635.42 102.9 635.18 C126.21 632.83 149.56 630.89 172.91 628.89 C172.21 628.89 171.52 628.9 170.8 628.9 C153.87 628.96 136.95 629.01 120.02 629.05 C111.84 629.06 103.65 629.08 95.47 629.12 C88.33 629.15 81.2 629.17 74.06 629.17 C70.28 629.18 66.51 629.19 62.73 629.21 C59.17 629.23 55.61 629.23 52.06 629.23 C50.13 629.23 48.21 629.25 46.28 629.26 C39.51 629.24 34.49 629.04 29.19 624.38 C25.44 619.84 22.5 615.08 19.72 609.89 C19.26 609.04 18.79 608.18 18.32 607.3 C12.8 597.02 7.77 586.49 2.91 575.89 C2.59 575.2 2.27 574.51 1.94 573.8 C0.06 569.59 -0.61 566.52 -0.09 561.89 C1.61 558.07 3.06 556.42 6.91 554.89 C14.02 554.15 20.97 555.18 27.93 556.57 C28.87 556.75 29.81 556.93 30.78 557.11 C33.88 557.7 36.97 558.31 40.06 558.91 C42.26 559.34 44.46 559.76 46.66 560.18 C51.32 561.07 55.97 561.97 60.63 562.87 C72.65 565.2 84.69 567.49 96.72 569.77 C97.91 570 99.09 570.22 100.31 570.46 C120.27 574.25 140.24 577.84 160.28 581.14 C161.51 581.34 162.74 581.55 164.01 581.76 C167.38 582.31 170.75 582.86 174.12 583.41 C175.07 583.56 176.03 583.72 177.01 583.88 C177.88 584.01 178.74 584.15 179.63 584.29 C180 584.35 180 584.35 181.86 584.64 C183.91 584.89 183.91 584.89 187.91 584.89 C175.68 582.26 163.45 579.64 151.22 577.01 C150.29 576.82 149.36 576.62 148.41 576.41 C125.73 571.55 103.04 566.7 80.35 561.9 C79.4 561.7 78.45 561.49 77.47 561.29 C69.14 559.53 60.81 557.77 52.48 556.01 C51.62 555.83 50.75 555.64 49.85 555.45 C48.13 555.09 46.41 554.73 44.68 554.36 C38.27 553.01 31.86 551.65 25.45 550.27 C21.22 549.37 17 548.5 12.76 547.65 C9.68 547.03 6.61 546.39 3.54 545.75 C2.47 545.54 1.41 545.34 0.31 545.13 C-7.01 543.58 -13.83 541.02 -18.61 534.97 C-19.94 532.9 -21.02 530.79 -22.09 528.58 C-22.53 527.71 -22.96 526.85 -23.41 525.95 C-28.34 515.87 -32.64 505.49 -36.97 495.14 C-37.33 494.27 -37.7 493.4 -38.08 492.5 C-41.73 483.78 -45.25 475.02 -48.1 466 C-48.49 464.77 -48.88 463.53 -49.28 462.26 C-51.71 451.65 -50.02 441.59 -46.69 431.43 C-46.33 430.28 -45.97 429.12 -45.6 427.94 C-44.84 425.49 -44.06 423.05 -43.28 420.6 C-42.11 416.95 -40.97 413.28 -39.83 409.61 C-37.64 402.52 -35.42 395.43 -33.19 388.35 C-32.29 385.49 -31.39 382.63 -30.49 379.77 C-25.41 363.58 -20.31 347.4 -15.21 331.23 C-14.72 329.67 -14.22 328.12 -13.73 326.56 C-13.49 325.79 -13.25 325.02 -13 324.23 C-12.51 322.68 -12.02 321.13 -11.53 319.58 C-10.32 315.73 -9.11 311.89 -7.89 308.04 C-2.86 292.08 2.16 276.12 7.1 260.13 C7.2 259.8 7.2 259.8 7.72 258.14 C9.8 251.4 11.88 244.65 13.95 237.91 C14.28 236.83 14.61 235.75 14.95 234.63 C15.57 232.64 16.18 230.64 16.79 228.64 C17.06 227.77 17.32 226.9 17.6 226.01 C17.83 225.25 18.06 224.5 18.3 223.73 C18.91 221.89 18.91 221.89 19.91 219.89 C16.51 222.56 13.58 225.16 10.84 228.51 C7.51 232.49 4.68 234.42 -0.41 235.76 C-4.95 235.92 -8.18 235.21 -12.09 232.89 C-18.33 226.33 -17.24 216.26 -17.24 207.72 C-17.24 206.85 -17.25 205.99 -17.25 205.09 C-17.26 202.22 -17.27 199.35 -17.27 196.48 C-17.28 194.41 -17.28 192.34 -17.29 190.27 C-17.31 183.5 -17.32 176.74 -17.33 169.97 C-17.33 167.63 -17.34 165.3 -17.34 162.96 C-17.36 152.01 -17.38 141.05 -17.38 130.09 C-17.39 117.45 -17.42 104.8 -17.46 92.16 C-17.49 82.38 -17.51 72.6 -17.51 62.81 C-17.51 56.97 -17.52 51.13 -17.55 45.29 C-17.57 39.81 -17.57 34.32 -17.56 28.84 C-17.56 26.82 -17.57 24.81 -17.58 22.8 C-17.6 20.05 -17.59 17.3 -17.58 14.55 C-17.59 13.76 -17.6 12.96 -17.61 12.14 C-17.55 6.94 -16.48 4.04 -13.09 -0.11 C-9.09 -3.29 -4.25 -2.25 0 0 Z M6.91 48.89 C6.88 61.63 6.87 74.37 6.86 87.11 C6.85 93.03 6.84 98.95 6.83 104.87 C6.78 133.89 6.97 162.88 7.91 191.89 C9.02 190.94 10.13 189.99 11.24 189.05 C11.55 188.78 11.55 188.78 13.12 187.45 C18.62 182.66 23.72 177.35 28.47 171.83 C43.81 154.04 43.81 154.04 53.22 152.26 C56.58 153.05 57.82 154.18 59.91 156.89 C65.43 173.45 58.08 191.55 52.94 207.25 C51.82 210.7 50.73 214.16 49.63 217.63 C48.09 222.51 46.54 227.39 44.98 232.26 C41.88 241.93 38.92 251.63 36 261.34 C29.58 282.72 22.92 304.02 16.28 325.33 C16.03 326.15 15.77 326.98 15.5 327.83 C9.78 346.2 4.03 364.56 -1.8 382.9 C-2.03 383.61 -2.26 384.33 -2.49 385.06 C-4.82 392.39 -7.15 399.71 -9.5 407.03 C-11.72 413.98 -13.91 420.93 -16.09 427.89 C-16.48 429.13 -16.87 430.36 -17.27 431.63 C-18.44 435.35 -19.58 439.07 -20.72 442.79 C-21.07 443.92 -21.43 445.05 -21.79 446.21 C-22.11 447.26 -22.43 448.31 -22.76 449.4 C-23.04 450.31 -23.32 451.23 -23.61 452.18 C-24.46 456.96 -23.23 461.03 -21.33 465.4 C-20.97 466.24 -20.61 467.08 -20.24 467.94 C-20.04 468.39 -20.04 468.39 -19.05 470.64 C-18.64 471.58 -18.24 472.52 -17.82 473.48 C-16.52 476.48 -15.21 479.46 -13.91 482.45 C-13.04 484.43 -12.18 486.42 -11.32 488.4 C-8.93 493.91 -6.52 499.4 -4.09 504.89 C-3.77 505.61 -3.46 506.34 -3.13 507.09 C-2.32 508.93 -1.49 510.77 -0.67 512.6 C-0.45 513.09 -0.45 513.09 0.65 515.54 C1.89 517.86 2.93 519.19 4.91 520.89 C7.67 521.69 10.34 522.34 13.15 522.91 C13.58 523 13.58 523 15.74 523.46 C17.61 523.85 19.48 524.25 21.36 524.63 C24.41 525.27 27.46 525.91 30.51 526.56 C33.81 527.26 37.1 527.96 40.4 528.66 C52.41 531.2 64.4 533.83 76.39 536.48 C80.18 537.31 83.97 538.15 87.76 538.98 C92.89 540.11 98.02 541.24 103.14 542.37 C108.35 543.51 113.55 544.66 118.76 545.8 C133.44 549.03 148.11 552.27 162.79 555.53 C166.6 556.38 170.42 557.22 174.24 558.06 C178.55 559.01 182.85 559.97 187.16 560.94 C188.32 561.19 189.47 561.44 190.67 561.7 C196.94 563.14 201.9 564.58 206.34 569.47 C214.64 583.29 221.67 600.26 222.22 616.51 C222.24 616.88 222.24 616.88 222.33 618.74 C221.91 620.89 221.91 620.89 219.89 622.85 C217.91 624.89 217.91 624.89 217.59 627.2 C217.97 630.45 218.39 633.66 218.91 636.89 C219.03 637.64 219.15 638.4 219.27 639.18 C220.94 649.39 223.15 658.7 227.64 668.04 C229.83 672.96 230.09 677.47 230.16 682.83 C230.17 683.42 230.17 683.42 230.24 686.42 C229.86 690.44 229.21 692.56 226.91 695.89 C221.82 699.72 216.06 702.35 210.25 704.88 C209.46 705.23 208.68 705.57 207.86 705.93 C205.38 707.03 202.89 708.12 200.41 709.2 C198.71 709.95 197.01 710.7 195.31 711.45 C191.18 713.27 187.05 715.08 182.91 716.89 C196.13 727.62 210.09 734.54 226.72 738.26 C227.11 738.36 227.11 738.36 229.11 738.81 C239.71 740.99 246.26 738.12 255.53 733.08 C256.63 732.49 257.73 731.91 258.86 731.31 C262.22 729.52 265.56 727.71 268.91 725.89 C269.88 725.36 270.86 724.84 271.86 724.29 C277.29 721.36 282.71 718.39 288.12 715.42 C291.11 713.78 294.1 712.16 297.1 710.54 C298.11 709.99 299.13 709.45 300.17 708.88 C302.12 707.82 304.07 706.77 306.03 705.72 C306.9 705.25 307.77 704.78 308.67 704.29 C309.06 704.08 309.06 704.08 311.01 703.03 C312.91 701.89 312.91 701.89 314.91 699.89 C315.48 695.39 315.42 690.86 315.47 686.33 C315.49 685.7 315.49 685.7 315.62 682.54 C315.7 675.04 315.04 670.49 309.92 664.89 C309.58 664.56 309.58 664.56 307.91 662.89 C306.67 661.52 305.43 660.16 304.19 658.79 C302.93 657.47 301.67 656.15 300.41 654.83 C296.03 650.23 291.74 645.59 287.58 640.8 C285.08 637.94 282.5 635.17 279.91 632.39 C276.06 628.24 272.25 624.08 268.56 619.78 C267.34 618.38 266.08 617.01 264.81 615.65 C257.38 607.63 254.5 600.39 254.78 589.35 C254.82 588.54 254.86 587.73 254.91 586.89 C254.92 586.49 254.92 586.49 255.01 584.46 C255.72 577.84 258.36 572.7 261.66 567.01 C262.08 566.29 262.49 565.56 262.92 564.82 C266.22 559.39 269.68 554.97 275.91 552.89 C277.75 552.79 279.6 552.75 281.45 552.75 C282.61 552.74 283.76 552.74 284.95 552.73 C286.22 552.73 287.48 552.73 288.79 552.73 C290.14 552.72 291.48 552.72 292.83 552.71 C296.49 552.7 300.15 552.69 303.81 552.69 C306.1 552.69 308.39 552.68 310.68 552.68 C317.85 552.66 325.01 552.65 332.18 552.65 C340.45 552.65 348.71 552.63 356.97 552.6 C363.37 552.58 369.76 552.57 376.15 552.57 C379.97 552.57 383.78 552.56 387.6 552.54 C391.19 552.53 394.78 552.52 398.37 552.53 C400.31 552.53 402.25 552.52 404.19 552.51 C411.71 552.54 418.41 552.68 424.23 558.02 C432.13 568.67 438.28 577.7 438.22 591.33 C438.24 592.04 438.25 592.75 438.27 593.49 C438.28 603.06 434.79 608.74 428.16 615.39 C426.88 616.71 425.61 618.03 424.34 619.35 C423.73 619.97 423.13 620.59 422.51 621.22 C420.7 623.1 418.98 625.03 417.28 627.01 C410.6 634.76 403.52 642.17 396.53 649.65 C377.6 669.88 377.6 669.88 377.28 683.1 C377.24 684.45 377.18 685.81 377.1 687.16 C376.84 691.56 376.83 695.6 377.91 699.89 C380.74 703.02 384.06 704.29 387.91 705.89 C389.9 706.96 391.88 708.05 393.85 709.16 C396.05 710.34 398.26 711.52 400.47 712.7 C401.06 713.02 401.64 713.33 402.25 713.65 C414.2 720.05 426.25 726.26 438.33 732.43 C439.01 732.78 439.7 733.13 440.4 733.49 C441.68 734.15 442.97 734.8 444.25 735.45 C446.92 736.82 449.41 738.22 451.91 739.89 C473.6 741.68 493.71 729.5 510.91 717.89 C509.36 714.8 506.88 714.42 503.74 713.1 C503.42 712.96 503.42 712.96 501.83 712.28 C499.79 711.42 497.76 710.56 495.72 709.7 C487.76 706.35 479.84 702.96 472.07 699.18 C470.94 698.64 469.81 698.09 468.65 697.52 C466.05 695.97 464.84 695.04 463.47 692.39 C461.27 682.12 463.78 671.82 467.56 662.3 C470.64 654.52 472.78 646.68 474.59 638.51 C474.82 637.53 475.04 636.55 475.28 635.53 C476.91 628.29 476.91 628.29 476.91 624.89 C476.29 624.64 475.67 624.39 475.03 624.14 C472.43 622.61 471.96 621.69 470.91 618.89 C470.16 601.71 477.41 579.9 488.91 566.89 C498.36 561.07 510.41 559.52 521.11 557.26 C523.13 556.82 525.14 556.39 527.15 555.96 C531.44 555.03 535.73 554.11 540.02 553.2 C546.77 551.76 553.52 550.29 560.27 548.82 C580.62 544.38 600.98 540.03 621.42 536.01 C628.5 534.62 635.56 533.19 642.63 531.74 C648.3 530.59 653.97 529.5 659.66 528.45 C663.18 527.79 666.68 527.07 670.19 526.33 C671.79 526.01 673.41 525.71 675.02 525.43 C686.76 523.42 686.76 523.42 690.31 519.25 C692.84 515.32 694.6 511.13 696.22 506.76 C697.07 504.46 698.09 502.25 699.13 500.02 C699.7 498.69 700.27 497.36 700.83 496.02 C701.14 495.29 701.45 494.56 701.78 493.81 C702.74 491.55 703.7 489.28 704.66 487.01 C705.31 485.49 705.96 483.96 706.61 482.43 C707.85 479.53 709.08 476.62 710.3 473.7 C711.25 471.42 712.24 469.16 713.28 466.91 C718.26 455.86 713.66 445.85 710.28 434.83 C710.03 434 709.78 433.16 709.52 432.31 C703.43 412.19 696.96 392.18 690.54 372.17 C679.66 338.26 669.08 304.26 658.63 270.23 C657.89 267.83 657.15 265.43 656.41 263.03 C653.13 252.34 649.84 241.64 646.57 230.94 C645.86 228.61 645.14 226.28 644.43 223.95 C641.56 214.61 638.72 205.25 635.91 195.89 C635.61 194.91 635.31 193.93 635.01 192.91 C632.47 184.5 630.06 176.46 630.41 167.58 C630.4 166.79 630.4 166.01 630.4 165.2 C630.48 160.65 630.99 157.59 633.91 153.89 C636.9 152.39 638.55 152.46 641.91 152.89 C649.78 156.78 655.81 163.4 661.88 169.58 C663.53 171.26 665.19 172.93 666.84 174.59 C671.99 179.77 677.02 184.98 681.71 190.58 C682.11 191.01 682.5 191.45 682.91 191.89 C683.24 191.89 683.57 191.89 683.91 191.89 C684.72 173.54 685.05 155.24 685.01 136.88 C685 134.32 685 131.75 685 129.19 C685 123.22 684.99 117.25 684.98 111.28 C684.97 104.46 684.96 97.65 684.96 90.83 C684.95 76.85 684.93 62.87 684.91 48.89 C682.17 50.23 679.72 51.64 677.25 53.44 C676.55 53.94 675.84 54.45 675.12 54.98 C674.37 55.52 673.62 56.07 672.84 56.64 C672.05 57.21 671.26 57.79 670.45 58.38 C663.95 63.11 657.48 67.88 651.02 72.65 C643.43 78.25 635.8 83.77 628.15 89.28 C625.89 90.9 623.63 92.54 621.38 94.17 C613.39 99.96 605.37 105.7 597.3 111.37 C592.18 114.98 587.1 118.64 582.03 122.33 C575.68 126.94 569.26 131.45 562.78 135.89 C562.01 136.42 561.24 136.95 560.45 137.49 C556.87 139.93 553.26 142.34 549.61 144.68 C549.3 144.88 549.3 144.88 547.74 145.88 C535.41 152.67 517.95 148.56 504.86 146.24 C500.13 145.41 495.39 144.62 490.65 143.83 C489.68 143.67 488.7 143.5 487.7 143.34 C463.32 139.27 438.82 136.03 414.22 133.58 C413.4 133.5 412.59 133.41 411.75 133.33 C406.47 132.81 401.19 132.33 395.91 131.89 C394.67 131.79 393.44 131.68 392.17 131.57 C379.08 130.61 365.96 130.65 352.84 130.64 C351.58 130.64 350.32 130.64 349.02 130.64 C328 130.66 307.25 131.47 286.35 133.64 C283.81 133.9 281.27 134.15 278.73 134.39 C245.68 137.61 212.77 142.28 180.07 148.1 C155.66 152.18 140.94 143.98 121.57 130.23 C117.01 126.98 112.49 123.69 107.97 120.39 C104.96 118.2 101.94 116.04 98.91 113.89 C91.32 108.48 83.77 103.02 76.22 97.56 C72.45 94.84 68.68 92.11 64.91 89.39 C63.41 88.31 61.91 87.22 60.41 86.14 C59.66 85.6 58.92 85.07 58.16 84.51 C57.03 83.7 57.03 83.7 51.41 79.64 C50.66 79.1 49.92 78.57 49.16 78.01 C47.66 76.93 46.17 75.86 44.67 74.78 C40.84 72 37 69.23 33.16 66.46 C32.38 65.9 31.6 65.34 30.8 64.76 C29.27 63.65 27.73 62.55 26.2 61.44 C22.92 59.08 19.65 56.71 16.4 54.3 C15.41 53.56 14.43 52.83 13.41 52.08 C12.57 51.45 11.74 50.83 10.88 50.18 C8.91 48.89 8.91 48.89 6.91 48.89 Z M36.91 589.89 C38.01 592.14 39.11 594.39 40.22 596.64 C40.53 597.27 40.84 597.91 41.16 598.56 C44.53 605.38 44.53 605.38 46.91 607.89 C49.29 608.36 49.29 608.36 52.18 608.32 C53.3 608.31 54.41 608.3 55.56 608.29 C56.79 608.26 58.02 608.23 59.28 608.2 C59.92 608.19 59.92 608.19 63.16 608.16 C66.88 608.11 70.6 608.03 74.31 607.95 C77.12 607.89 79.93 607.83 82.73 607.77 C95.79 607.52 108.85 607.22 121.91 606.89 C121.91 606.56 121.91 606.23 121.91 605.89 C111.56 603.8 101.22 601.71 90.87 599.63 C86.07 598.67 81.27 597.7 76.46 596.73 C71.83 595.79 67.19 594.85 62.56 593.92 C60.79 593.57 59.02 593.21 57.25 592.85 C54.78 592.35 52.3 591.85 49.82 591.36 C49.09 591.21 48.36 591.06 47.61 590.91 C43.99 590.19 40.6 589.72 36.91 589.89 Z M644.13 591.36 C643.34 591.51 642.55 591.67 641.74 591.83 C639.12 592.35 636.51 592.87 633.9 593.39 C632.08 593.75 630.27 594.11 628.46 594.47 C623.69 595.41 618.92 596.36 614.15 597.31 C609.29 598.27 604.42 599.24 599.55 600.2 C590 602.1 580.46 603.99 570.91 605.89 C570.91 606.22 570.91 606.55 570.91 606.89 C573.85 606.96 576.79 607.04 579.73 607.11 C580.19 607.12 580.19 607.12 582.52 607.18 C587.61 607.3 592.7 607.41 597.79 607.51 C598.81 607.53 599.84 607.55 600.89 607.57 C602.96 607.61 605.03 607.65 607.1 607.69 C612.4 607.79 617.7 607.95 622.99 608.21 C626.26 608.36 629.52 608.46 632.78 608.58 C633.36 608.62 633.36 608.62 636.26 608.82 C639.45 608.9 641.87 608.87 644.91 607.89 C647.99 604.92 649.95 601.67 651.91 597.89 C652.09 597.57 652.09 597.57 652.99 595.97 C654.12 593.87 654.91 592.3 654.91 589.89 C651.2 589.89 647.75 590.63 644.13 591.36 Z M522.91 656.89 C526.03 658.58 529.13 659.64 532.54 660.62 C533.09 660.79 533.09 660.79 535.9 661.61 C536.49 661.78 536.49 661.78 539.47 662.64 C548.7 665.33 557.89 668.07 566.99 671.16 C571.09 672.51 574.61 673.54 578.91 672.89 C581.9 670.96 581.9 670.96 584.78 668.45 C585.75 667.63 586.72 666.8 587.71 665.96 C588.44 665.27 589.16 664.59 589.91 663.89 C589.91 663.56 589.91 663.23 589.91 662.89 C577.99 661.43 566.07 660.17 554.12 659.03 C551.32 658.76 548.51 658.49 545.71 658.21 C543.9 658.04 542.09 657.87 540.28 657.69 C539.45 657.61 538.63 657.53 537.78 657.45 C532.8 656.98 527.91 656.82 522.91 656.89 Z M159.07 657.33 C158.51 657.38 158.51 657.38 155.67 657.63 C154.47 657.73 153.27 657.84 152.03 657.95 C151.41 658 151.41 658 148.26 658.28 C145.63 658.51 143 658.74 140.38 658.97 C137.02 659.27 133.66 659.56 130.3 659.85 C127.09 660.13 123.87 660.42 120.65 660.7 C119.45 660.8 118.25 660.91 117.01 661.01 C115.89 661.11 114.77 661.21 113.61 661.32 C113.12 661.36 113.12 661.36 110.63 661.58 C108.01 661.88 105.48 662.33 102.91 662.89 C104.54 664.62 106.18 666.27 107.91 667.89 C108.43 668.38 108.95 668.87 109.48 669.37 C111.87 671.36 113.77 672.85 116.95 672.96 C122.24 672.25 127.19 671.12 132.27 669.49 C133.03 669.26 133.8 669.02 134.58 668.78 C136.98 668.03 139.38 667.27 141.78 666.51 C144.95 665.52 148.11 664.54 151.27 663.55 C151.65 663.44 151.65 663.44 153.56 662.84 C159.3 661.05 165.08 659.4 170.91 657.89 C170.91 657.56 170.91 657.23 170.91 656.89 C166.93 656.85 163.03 656.99 159.07 657.33 Z " fill="#000000" transform="translate(511.092529296875,145.110107421875)" />
<path d="M0 0 C1.08 -0 2.16 -0.01 3.28 -0.01 C3.87 -0.01 3.87 -0.01 6.85 0.01 C8.1 0.01 9.34 0.01 10.62 0.01 C14.01 0.01 17.4 0.03 20.79 0.04 C22.9 0.06 25.01 0.06 27.13 0.07 C35.13 0.1 43.13 0.14 51.13 0.2 C55.39 0.23 59.65 0.25 63.91 0.28 C71.05 0.31 78.19 0.37 85.33 0.45 C87.74 0.48 90.15 0.5 92.56 0.51 C95.92 0.53 99.28 0.58 102.64 0.63 C103.61 0.63 104.59 0.64 105.59 0.64 C112.68 0.79 119.85 2.04 125.43 6.74 C129.88 11.43 132.85 17.47 135.97 23.08 C137.71 26.2 139.47 29.31 141.23 32.42 C141.59 33.07 141.95 33.71 142.33 34.38 C146.23 41.3 150.25 48.15 154.28 54.99 C154.99 56.22 155.71 57.44 156.43 58.66 C157.84 61.05 159.24 63.44 160.65 65.83 C171.8 84.82 182.77 103.9 193.67 123.03 C202.68 138.84 211.74 154.61 220.93 170.31 C223.84 175.28 226.75 180.26 229.65 185.24 C233.14 191.22 236.62 197.2 240.12 203.17 C249.94 219.98 259.67 236.84 269.37 253.72 C275.74 264.79 282.17 275.83 288.71 286.81 C294.46 296.46 300.04 306.19 305.49 316.02 C309.58 323.38 313.81 330.67 318.09 337.93 C328.26 355.26 335.39 369.56 332.65 390.24 C331.03 396.09 327.83 401.13 324.65 406.24 C323.9 407.51 323.16 408.78 322.42 410.06 C320.81 412.82 319.18 415.58 317.54 418.32 C314.03 424.24 310.73 430.28 307.4 436.31 C302.54 445.12 297.57 453.88 292.46 462.56 C287.49 471.01 282.71 479.55 278.04 488.18 C274.72 494.31 271.32 500.39 267.84 506.43 C263.2 514.49 258.66 522.6 254.15 530.74 C249.21 539.67 244.22 548.55 239.14 557.4 C235.3 564.09 231.53 570.82 227.78 577.56 C223.12 585.9 218.37 594.19 213.53 602.43 C209.1 609.97 204.8 617.55 200.65 625.24 C195.95 633.96 191.02 642.53 186 651.07 C181.19 659.28 176.53 667.57 171.9 675.89 C167.91 683.04 163.81 690.12 159.65 697.18 C154.69 705.61 149.95 714.12 145.34 722.74 C144.75 723.83 144.17 724.93 143.57 726.05 C139.34 733.94 139.34 733.94 137.28 737.84 C127.96 755.47 127.96 755.47 119.65 758.24 C117.96 758.34 116.27 758.37 114.57 758.38 C113.52 758.38 112.47 758.39 111.39 758.39 C110.24 758.39 109.09 758.39 107.9 758.39 C106.69 758.39 105.47 758.39 104.22 758.4 C100.89 758.41 97.57 758.41 94.24 758.41 C91.46 758.41 88.68 758.41 85.9 758.42 C79.35 758.43 72.79 758.43 66.24 758.43 C59.48 758.43 52.71 758.44 45.95 758.45 C40.15 758.47 34.34 758.47 28.53 758.47 C25.07 758.47 21.6 758.47 18.13 758.48 C14.27 758.5 10.4 758.49 6.53 758.49 C5.38 758.49 4.23 758.5 3.05 758.5 C2.52 758.5 2.52 758.5 -0.14 758.49 C-1.06 758.49 -1.97 758.49 -2.91 758.49 C-5.54 758.22 -7.12 757.64 -9.35 756.24 C-13.74 750.71 -13.17 744.06 -12.62 737.34 C-11.02 725.15 -2.88 713.77 3.14 703.37 C6.68 697.24 10.05 691.04 13.4 684.81 C17.98 676.32 22.63 667.88 27.38 659.49 C30.03 654.81 32.65 650.12 35.28 645.43 C35.87 644.37 36.46 643.31 37.08 642.22 C42.09 633.27 47.07 624.3 52.04 615.33 C56.23 607.79 60.43 600.26 64.65 592.74 C71.39 580.73 78.08 568.69 84.76 556.65 C88.51 549.89 92.27 543.13 96.02 536.38 C99.17 530.7 102.32 525.03 105.47 519.35 C111.82 507.9 118.2 496.48 124.67 485.09 C129.08 477.3 133.4 469.46 137.71 461.62 C142.78 452.41 147.9 443.24 153.14 434.14 C157.9 425.86 162.51 417.51 167.12 409.16 C170.03 403.91 172.96 398.68 176.01 393.51 C176.53 392.65 177.04 391.78 177.57 390.89 C178.51 389.3 179.46 387.73 180.42 386.15 C184.8 378.78 184.8 378.78 184.65 374.24 C183.31 370.72 181.52 367.51 179.65 364.24 C179.16 363.37 178.67 362.51 178.16 361.61 C176.56 358.81 174.92 356.02 173.28 353.24 C172.03 351.12 170.78 348.99 169.53 346.87 C168.89 345.78 168.25 344.69 167.59 343.56 C164.42 338.14 161.29 332.69 158.15 327.24 C151.6 315.88 145 304.54 138.39 293.21 C134.89 287.22 131.39 281.23 127.9 275.23 C125.01 270.28 122.12 265.33 119.22 260.38 C112.67 249.18 106.19 237.94 99.77 226.66 C94.78 217.9 89.69 209.21 84.53 200.56 C78.76 190.9 73.19 181.15 67.73 171.31 C63.41 163.55 58.94 155.9 54.4 148.26 C50.78 142.17 47.22 136.03 43.71 129.87 C37.12 118.27 30.39 106.76 23.65 95.24 C19.59 88.29 15.53 81.33 11.48 74.37 C10.22 72.22 8.96 70.07 7.71 67.92 C3.85 61.33 0.04 54.71 -3.72 48.07 C-5.13 45.62 -6.6 43.22 -8.11 40.82 C-14.45 30.28 -14.82 19.25 -12.35 7.24 C-9.73 1.27 -6.31 -0.01 0 0 Z M20.65 26.24 C21.92 30.15 23.24 33.56 25.35 37.09 C25.89 38.01 26.43 38.93 26.99 39.88 C27.58 40.87 28.17 41.85 28.78 42.87 C30.05 45.02 31.31 47.17 32.58 49.32 C33.25 50.44 33.91 51.57 34.6 52.73 C37.74 58.08 40.8 63.48 43.87 68.87 C48.81 77.55 53.78 86.22 58.86 94.81 C63.25 102.23 67.54 109.71 71.85 117.18 C76.07 124.51 80.32 131.82 84.59 139.12 C92.72 153.03 100.69 167.03 108.67 181.03 C111.04 185.19 113.41 189.34 115.78 193.49 C116.11 194.08 116.44 194.66 116.79 195.26 C121.92 204.26 127.13 213.22 132.36 222.17 C136.84 229.83 141.26 237.53 145.65 245.24 C151.19 254.96 156.78 264.64 162.43 274.3 C166.75 281.68 171.02 289.08 175.28 296.49 C179.66 304.12 184.1 311.71 188.65 319.24 C193.05 326.53 197.38 333.85 201.65 341.2 C202.62 342.88 203.6 344.55 204.58 346.23 C214.7 363.72 214.7 363.72 214.96 373.31 C214.98 373.73 214.98 373.73 215.08 375.9 C213.85 385.5 208.87 394.08 204.28 402.43 C203.66 403.56 203.05 404.69 202.41 405.85 C197.75 414.37 192.9 422.77 187.97 431.14 C181.63 441.92 175.59 452.86 169.55 463.81 C164.54 472.87 159.51 481.91 154.48 490.95 C153.27 493.12 152.07 495.3 150.86 497.47 C144.57 508.78 138.22 520.03 131.65 531.18 C126.15 540.54 120.94 550.02 115.83 559.6 C110.49 569.59 104.93 579.44 99.33 589.29 C96.33 594.58 93.37 599.88 90.4 605.18 C86.97 611.31 83.54 617.44 80.09 623.55 C76.29 630.27 72.58 637.03 68.9 643.81 C64.29 652.3 59.57 660.72 54.8 669.12 C49.58 678.33 44.47 687.59 39.38 696.87 C34.08 706.53 34.08 706.53 31.39 711.16 C31.02 711.8 30.65 712.44 30.27 713.1 C29.55 714.33 28.83 715.57 28.1 716.8 C25.65 721.02 25.65 721.02 25.65 723.24 C36.07 723.54 46.49 723.78 56.92 723.92 C61.76 723.98 66.6 724.08 71.44 724.22 C76.12 724.37 80.79 724.44 85.47 724.48 C87.25 724.5 89.03 724.55 90.8 724.62 C102.1 725.05 102.1 725.05 106.65 723.24 C110.62 719.33 112.46 715.37 114.65 710.24 C115.89 708.06 117.15 705.88 118.44 703.73 C119.72 701.48 121 699.24 122.28 696.99 C122.97 695.77 123.67 694.55 124.36 693.33 C129.5 684.31 134.58 675.25 139.64 666.19 C143.75 658.83 147.92 651.51 152.11 644.19 C156 637.4 159.83 630.58 163.65 623.74 C167.95 616.05 172.27 608.38 176.65 600.74 C181.62 592.09 186.5 583.39 191.37 574.68 C195.81 566.74 200.28 558.82 204.76 550.91 C207.55 545.98 210.33 541.04 213.08 536.09 C218.88 525.69 224.74 515.33 230.78 505.06 C235.77 496.56 240.57 487.98 245.26 479.31 C249.07 472.26 253.02 465.3 257.01 458.35 C260.94 451.51 264.81 444.63 268.65 437.74 C272.97 430.01 277.31 422.3 281.71 414.62 C286.08 407 290.44 399.38 294.78 391.74 C295.05 391.26 295.05 391.26 296.46 388.79 C296.98 387.88 297.5 386.96 298.03 386.02 C298.26 385.62 298.26 385.62 299.42 383.59 C302.06 378.55 303.92 373.96 302.65 368.24 C300.47 363.52 297.76 359.16 295.03 354.74 C294.24 353.45 293.46 352.15 292.69 350.86 C291.1 348.23 289.52 345.61 287.92 342.99 C284.69 337.68 281.58 332.31 278.46 326.93 C277.32 324.97 276.18 323.02 275.04 321.06 C274.48 320.1 273.92 319.14 273.35 318.15 C271.63 315.21 269.92 312.27 268.2 309.33 C261.52 297.9 254.87 286.44 248.26 274.96 C242.34 264.69 236.37 254.45 230.39 244.21 C226.89 238.22 223.39 232.23 219.9 226.24 C217 221.26 214.09 216.29 211.19 211.31 C204.51 199.88 197.87 188.43 191.26 176.95 C187.08 169.7 182.87 162.47 178.65 155.24 C171.9 143.7 165.22 132.11 158.54 120.53 C154.79 114.01 151.03 107.5 147.27 100.99 C144.17 95.61 141.07 90.23 137.97 84.85 C131.58 73.74 125.17 62.65 118.71 51.59 C117.97 50.34 117.24 49.08 116.51 47.83 C105.75 29.34 105.75 29.34 102.65 26.24 C100.1 26.15 97.57 26.12 95.01 26.13 C94.21 26.13 93.41 26.13 92.59 26.13 C89.93 26.13 87.27 26.14 84.62 26.15 C82.78 26.15 80.94 26.15 79.11 26.15 C74.26 26.15 69.42 26.16 64.57 26.17 C59.63 26.18 54.69 26.19 49.75 26.19 C40.05 26.2 30.35 26.22 20.65 26.24 Z " fill="#000000" transform="translate(1334.3486328125,209.757080078125)" />
<path d="M0 0 C6.98 -0.07 13.97 -0.13 20.95 -0.16 C23.3 -0.18 25.65 -0.2 27.99 -0.22 C31.24 -0.25 34.49 -0.26 37.75 -0.26 C38.7 -0.28 39.65 -0.29 40.63 -0.3 C45.49 -0.28 48.9 -0.19 52.8 3.07 C57.27 9.78 56.49 20.25 55.8 28.07 C54.65 33.05 51.97 37.27 49.3 41.57 C47.13 45.16 45.17 48.86 43.17 52.54 C36.41 65.04 29.36 77.35 22.07 89.55 C18.44 95.65 14.9 101.79 11.36 107.94 C6.53 116.33 1.68 124.71 -3.2 133.07 C-8.06 141.38 -12.89 149.72 -17.7 158.07 C-22.51 166.41 -27.34 174.75 -32.2 183.07 C-37.04 191.34 -41.85 199.63 -46.64 207.94 C-47.26 209.02 -47.88 210.1 -48.52 211.21 C-51.69 216.71 -54.86 222.21 -58.03 227.71 C-63.85 237.82 -69.68 247.91 -75.64 257.94 C-80.56 266.22 -85.37 274.57 -90.14 282.94 C-96.85 294.71 -103.64 306.43 -110.48 318.12 C-112.23 321.12 -113.98 324.12 -115.73 327.12 C-125.28 343.52 -125.28 343.52 -129.87 351.25 C-130.46 352.25 -131.05 353.25 -131.66 354.28 C-132.78 356.16 -133.9 358.05 -135.03 359.94 C-136.44 362.3 -137.82 364.68 -139.2 367.07 C-139.84 368.14 -140.47 369.21 -141.13 370.31 C-142.74 374.43 -141.83 377.62 -140.09 381.62 C-139.62 382.46 -139.16 383.3 -138.68 384.16 C-138.16 385.12 -137.64 386.07 -137.1 387.06 C-136.54 388.07 -135.97 389.08 -135.39 390.13 C-134.8 391.19 -134.22 392.26 -133.61 393.36 C-127.92 403.66 -122.08 413.87 -116.2 424.07 C-113.55 428.67 -110.91 433.27 -108.27 437.88 C-107.93 438.47 -107.58 439.07 -107.23 439.68 C-101.99 448.83 -96.91 458.06 -91.92 467.35 C-88.32 474.03 -84.64 480.66 -80.89 487.25 C-75.97 495.91 -71.13 504.6 -66.33 513.32 C-65.99 513.93 -65.66 514.54 -65.31 515.17 C-65.14 515.47 -65.14 515.47 -64.29 517.03 C-63.61 518.26 -62.92 519.5 -62.24 520.74 C-61.91 521.35 -61.57 521.96 -61.22 522.59 C-57.73 528.93 -54.22 535.25 -50.7 541.57 C-43.51 554.5 -36.36 567.45 -29.22 580.41 C-27.21 584.05 -25.21 587.69 -23.2 591.32 C-23.03 591.62 -23.03 591.62 -22.2 593.13 C-21.2 594.94 -20.2 596.76 -19.2 598.57 C-15.19 605.84 -11.18 613.11 -7.17 620.39 C15.97 662.37 15.97 662.37 24.71 677.71 C30.18 687.32 35.51 697 40.73 706.75 C41.35 707.9 41.96 709.04 42.6 710.23 C55.77 734.9 55.77 734.9 54.8 749.07 C53.55 752.88 52.75 754.39 49.51 756.69 C46.56 758.19 44.81 758.44 41.53 758.45 C41.01 758.45 41.01 758.45 38.37 758.47 C37.24 758.47 36.11 758.46 34.94 758.45 C33.74 758.46 32.54 758.46 31.3 758.47 C28.02 758.48 24.73 758.48 21.45 758.47 C18 758.46 14.56 758.47 11.12 758.47 C5.34 758.48 -0.45 758.47 -6.23 758.46 C-12.91 758.44 -19.58 758.45 -26.26 758.46 C-32 758.48 -37.74 758.48 -43.48 758.47 C-46.91 758.47 -50.33 758.46 -53.76 758.47 C-57.58 758.48 -61.4 758.47 -65.22 758.45 C-66.35 758.46 -67.48 758.47 -68.64 758.47 C-75.07 758.42 -79.71 757.96 -84.84 753.71 C-89.27 748.5 -92.42 742.65 -95.64 736.63 C-97.38 733.38 -99.15 730.14 -100.91 726.9 C-101.27 726.24 -101.63 725.58 -102 724.9 C-105.48 718.52 -109.11 712.22 -112.77 705.94 C-118.47 696.13 -124.02 686.25 -129.51 676.32 C-134.03 668.15 -138.62 660.04 -143.27 651.94 C-148.38 643.03 -153.45 634.1 -158.45 625.13 C-163.17 616.68 -167.93 608.26 -172.74 599.87 C-178.05 590.59 -183.31 581.28 -188.56 571.97 C-190.73 568.13 -192.91 564.28 -195.08 560.44 C-196.71 557.56 -198.33 554.68 -199.96 551.81 C-202.11 548 -204.26 544.19 -206.42 540.39 C-207.49 538.49 -208.57 536.59 -209.64 534.69 C-210.18 533.75 -210.71 532.8 -211.26 531.83 C-214.07 526.86 -216.86 521.89 -219.64 516.91 C-225.36 506.65 -231.13 496.44 -237.08 486.32 C-243.33 475.68 -249.31 464.9 -255.24 454.09 C-255.58 453.48 -255.91 452.88 -256.25 452.25 C-256.58 451.65 -256.91 451.05 -257.25 450.42 C-260.61 444.3 -264.03 438.22 -267.45 432.13 C-271.93 424.14 -276.41 416.15 -280.83 408.13 C-281.07 407.69 -281.07 407.69 -282.3 405.49 C-287.18 396.6 -290.91 388.86 -290.64 378.57 C-290.65 377.79 -290.66 377.01 -290.66 376.21 C-290.54 365 -285.98 356.14 -280.64 346.5 C-280.01 345.35 -279.38 344.2 -278.73 343.01 C-274.58 335.45 -270.31 327.97 -265.88 320.57 C-262.5 314.92 -259.24 309.21 -255.95 303.5 C-251.04 294.97 -246.11 286.45 -241.14 277.94 C-240.57 276.96 -239.99 275.97 -239.4 274.96 C-236.53 270.04 -233.65 265.13 -230.78 260.21 C-224.18 248.94 -217.65 237.63 -211.18 226.28 C-205.98 217.15 -200.72 208.06 -195.42 199 C-191.18 191.74 -186.96 184.47 -182.77 177.19 C-182.14 176.11 -181.52 175.03 -180.88 173.92 C-178.99 170.64 -177.1 167.35 -175.2 164.07 C-167.33 150.39 -159.43 136.73 -151.47 123.1 C-147.19 115.77 -142.94 108.42 -138.7 101.07 C-131.58 88.71 -124.41 76.38 -117.2 64.07 C-116.54 62.93 -115.88 61.8 -115.2 60.63 C-114.5 59.44 -113.81 58.25 -113.11 57.07 C-112.76 56.47 -112.41 55.87 -112.05 55.25 C-110.26 52.2 -108.48 49.15 -106.68 46.11 C-105.97 44.89 -105.25 43.67 -104.53 42.45 C-104.18 41.85 -103.82 41.24 -103.45 40.62 C-101.25 36.86 -99.07 33.09 -96.9 29.31 C-95.48 26.81 -94.04 24.33 -92.6 21.85 C-91.61 20.11 -90.62 18.37 -89.64 16.63 C-85.17 8.94 -81.37 3.89 -72.43 1.47 C-67.48 0.57 -62.43 0.7 -57.42 0.65 C-56.15 0.63 -54.89 0.61 -53.58 0.59 C-50.15 0.54 -46.71 0.5 -43.28 0.46 C-41.14 0.44 -39 0.41 -36.86 0.39 C-28.08 0.27 -19.3 0.18 -10.52 0.11 C-7.01 0.07 -3.51 0.04 0 0 Z M-61.98 28.52 C-65.7 32.5 -68.24 37.34 -70.77 42.13 C-74.47 48.96 -78.29 55.7 -82.27 62.38 C-83.37 64.24 -84.48 66.11 -85.59 67.98 C-86.17 68.95 -86.75 69.93 -87.35 70.94 C-90.78 76.72 -94.18 82.52 -97.58 88.32 C-97.76 88.62 -97.76 88.62 -98.67 90.17 C-104.4 99.96 -110.09 109.77 -115.75 119.6 C-122.76 131.77 -129.85 143.9 -136.93 156.02 C-145.44 170.58 -153.9 185.17 -162.31 199.78 C-166.06 206.29 -169.82 212.8 -173.57 219.31 C-176.73 224.77 -179.88 230.24 -183.02 235.71 C-189.38 246.76 -195.79 257.78 -202.3 268.75 C-206.43 275.72 -210.48 282.73 -214.52 289.75 C-219.65 298.69 -224.87 307.58 -230.14 316.44 C-235.42 325.32 -240.65 334.23 -245.79 343.19 C-246.79 344.94 -247.8 346.68 -248.8 348.43 C-250.63 351.63 -252.42 354.84 -254.2 358.07 C-254.5 358.59 -254.5 358.59 -256.03 361.27 C-261.21 370.79 -261.21 370.79 -259.99 376 C-258.2 380.72 -255.91 385.13 -253.52 389.57 C-252.93 390.66 -252.35 391.76 -251.75 392.89 C-247.26 401.3 -242.51 409.55 -237.65 417.75 C-232.98 425.67 -228.5 433.69 -224.08 441.75 C-216.44 455.67 -208.61 469.46 -200.66 483.19 C-193.57 495.43 -186.6 507.72 -179.76 520.1 C-175.67 527.48 -171.48 534.79 -167.2 542.07 C-160.91 552.77 -154.87 563.6 -148.86 574.47 C-145.49 580.56 -142.08 586.63 -138.64 592.69 C-133.54 601.69 -128.48 610.71 -123.43 619.73 C-119.03 627.59 -114.6 635.43 -110.16 643.27 C-106.65 649.48 -103.17 655.72 -99.72 661.97 C-94.04 672.23 -88.31 682.46 -82.45 692.63 C-81.89 693.61 -81.32 694.6 -80.74 695.61 C-79.58 697.63 -78.36 699.62 -77.11 701.58 C-75.53 704.47 -74.67 706.71 -73.75 709.81 C-71.74 715.52 -69.55 719.89 -64.2 723.07 C-51.8 726.02 -38.54 724.84 -25.9 724.3 C-21.09 724.12 -16.27 724.03 -11.46 723.94 C-2.04 723.75 7.38 723.45 16.8 723.07 C15.13 718.81 13.18 714.78 11.05 710.75 C10.66 710.02 10.27 709.29 9.87 708.54 C5.87 701.05 1.55 693.75 -2.76 686.44 C-8.67 676.35 -14.21 666.08 -19.74 655.78 C-23.04 649.66 -26.43 643.6 -29.82 637.54 C-31.39 634.74 -32.95 631.94 -34.51 629.14 C-40.05 619.23 -45.61 609.34 -51.27 599.5 C-55.49 592.15 -59.57 584.73 -63.58 577.25 C-67.98 569.05 -72.54 560.96 -77.27 552.94 C-82.73 543.66 -87.96 534.29 -93.08 524.82 C-101.62 509.03 -110.43 493.39 -119.29 477.77 C-124.11 469.25 -128.86 460.69 -133.61 452.12 C-137.67 444.81 -141.76 437.52 -145.89 430.25 C-151.68 420.05 -157.32 409.77 -162.91 399.45 C-164.08 397.28 -165.27 395.13 -166.47 392.98 C-167.11 391.83 -167.74 390.68 -168.39 389.5 C-168.92 388.55 -169.45 387.6 -170 386.62 C-171.95 382.48 -172.39 378.48 -172.52 373.94 C-172.53 373.52 -172.53 373.52 -172.63 371.37 C-171.38 361.64 -166.33 353.29 -161.39 345 C-160.39 343.29 -159.38 341.57 -158.38 339.86 C-157.34 338.09 -156.3 336.33 -155.26 334.57 C-152.01 329.05 -148.83 323.49 -145.64 317.94 C-140.28 308.64 -134.88 299.37 -129.47 290.1 C-123.3 279.54 -117.2 268.94 -111.09 258.35 C-107.97 252.92 -104.83 247.49 -101.7 242.07 C-100.45 239.9 -99.2 237.73 -97.95 235.57 C-60.45 170.57 -60.45 170.57 -58.58 167.32 C-57.33 165.15 -56.08 162.98 -54.83 160.81 C-51.72 155.42 -48.6 150.03 -45.49 144.64 C-39.03 133.46 -32.6 122.27 -26.2 111.07 C-16.2 93.54 -6.13 76.06 4.05 58.63 C4.62 57.65 5.19 56.67 5.78 55.66 C8.55 50.91 11.33 46.16 14.12 41.41 C15.14 39.67 16.15 37.93 17.17 36.19 C17.41 35.79 17.41 35.79 18.6 33.77 C21.8 28.29 21.8 28.29 21.8 26.07 C12.43 26.04 3.07 26.02 -6.29 26.01 C-10.64 26.01 -14.99 26 -19.34 25.99 C-23.54 25.98 -27.74 25.97 -31.94 25.97 C-33.54 25.97 -35.14 25.97 -36.73 25.96 C-58.76 25.89 -58.76 25.89 -61.98 28.52 Z " fill="#000000" transform="translate(315.2034635543823,209.93459129333496)" />
<path d="M0 0 C3.28 1.01 6.43 2.26 9.6 3.58 C10.5 3.94 11.4 4.3 12.32 4.68 C15.24 5.86 18.15 7.05 21.06 8.25 C23.1 9.08 25.15 9.91 27.19 10.74 C31.26 12.39 35.33 14.05 39.4 15.71 C44.12 17.64 48.84 19.55 53.57 21.45 C69.42 27.83 85.19 34.41 100.95 41.04 C112.93 46.07 124.95 51.03 137 55.88 C142.95 58.28 148.89 60.7 154.83 63.12 C157.02 64.01 159.21 64.89 161.4 65.78 C164.91 67.2 168.41 68.65 171.91 70.12 C173.2 70.65 174.48 71.18 175.77 71.7 C185.33 75.55 191.31 79.02 195.61 88.59 C197.42 93.05 198.99 97.58 200.56 102.12 C201.16 103.8 201.76 105.48 202.36 107.16 C203.29 109.78 204.23 112.39 205.15 115.01 C207.33 121.16 209.58 127.28 211.88 133.39 C212.51 135.08 213.15 136.77 213.78 138.46 C214.69 140.88 215.6 143.3 216.51 145.72 C229.69 180.51 229.69 180.51 225.78 189.95 C223.96 193.07 221.99 195.58 219.56 198.25 C218.8 199.1 218.04 199.95 217.25 200.83 C215.2 202.8 213.61 203.93 211 205 C211 205.66 211 206.32 211 207 C209.53 208.48 209.53 208.48 207.5 210.19 C206.78 210.8 206.05 211.42 205.3 212.05 C204.54 212.69 203.78 213.34 203 214 C200.88 215.87 198.77 217.74 196.66 219.62 C193.16 222.53 190.01 222.34 185.6 222.26 C181.66 221.86 178.83 220.7 176 218 C171.03 211.19 168.14 203.67 165.44 195.75 C165.05 194.66 164.67 193.56 164.28 192.44 C163.52 190.28 162.77 188.12 162.02 185.96 C160.69 182.11 159.32 178.27 157.94 174.44 C157.29 172.63 156.65 170.81 156 169 C152.36 170.38 148.99 172.04 145.56 173.88 C136.34 178.52 126.35 181.57 116 182 C115.16 182.05 114.32 182.1 113.45 182.16 C88.88 182.97 64.38 174.32 46 158 C45.31 157.41 44.63 156.82 43.92 156.21 C22.8 136.71 19.04 108.02 16 81 C14.31 80.29 12.63 79.58 10.94 78.88 C9.85 78.42 8.76 77.96 7.64 77.49 C5.15 76.47 2.66 75.49 0.14 74.54 C-17.35 67.94 -17.35 67.94 -22 60 C-23.39 49.83 -21.69 39.32 -20.25 29.25 C-20.09 28.14 -19.94 27.03 -19.78 25.88 C-16.74 6.22 -16.74 6.22 -11.93 0.57 C-7.68 -1.71 -4.59 -1.1 0 0 Z M6.06 36.25 C5 38 5 38 5.43 40.11 C5.62 40.73 5.81 41.36 6 42 C6.99 41.89 7.98 41.79 9 41.68 C18.38 40.77 25.05 40.72 32.69 46.69 C36.81 50.61 40.55 54.75 41.35 60.56 C41.38 63.41 41.28 66.22 41.12 69.06 C40.52 92.12 47.77 110.8 63.66 127.75 C76.03 139.65 92.1 144.81 109 145 C125.41 144.08 138.53 138 151.12 127.62 C155.17 124.54 158.92 123.46 164 124 C169.2 125.7 173.18 129.35 176 134 C180.18 143 183.43 152.43 186.81 161.75 C187.32 163.14 187.83 164.53 188.33 165.92 C189.56 169.28 190.78 172.64 192 176 C193.98 175.01 195.96 174.02 198 173 C195.99 166.11 193.78 159.3 191.42 152.52 C191.08 151.55 190.74 150.59 190.4 149.59 C189.69 147.55 188.98 145.51 188.27 143.47 C187.2 140.41 186.13 137.34 185.07 134.27 C183.7 130.32 182.31 126.38 180.91 122.45 C179.7 119.05 178.56 115.64 177.5 112.18 C177.27 111.46 177.03 110.73 176.78 109.98 C176.17 108.08 175.58 106.17 175 104.26 C170.3 96.59 160.27 93.62 152.22 90.43 C151.22 90.02 150.21 89.61 149.18 89.2 C147.05 88.34 144.92 87.48 142.79 86.63 C138.34 84.85 133.89 83.05 129.44 81.25 C127.25 80.36 125.05 79.47 122.86 78.59 C115.33 75.55 107.84 72.45 100.38 69.25 C12.81 31.9 12.81 31.9 6.06 36.25 Z " fill="#000000" transform="translate(578,459)" />
<path d="M0 0 C8.96 6.83 9.54 21.82 11.05 32.35 C11.83 38.16 12.45 43.97 12.88 49.81 C12.94 50.53 13 51.26 13.06 52 C13.36 57.26 12.5 60.48 10 65 C7.33 67.54 4.21 69.2 1 71 C0.25 71.43 -0.51 71.86 -1.29 72.31 C-8.08 75.95 -18.13 81 -26 81 C-26.04 81.73 -26.08 82.47 -26.12 83.22 C-27.83 113.41 -33.48 138.9 -56.03 160.47 C-75.54 177.08 -101.25 184.61 -126.69 182.6 C-139.19 181.38 -150.58 178.16 -161.14 171.14 C-163 170 -163 170 -165 170 C-165.39 171.09 -165.79 172.19 -166.19 173.31 C-167.67 177.42 -169.16 181.53 -170.65 185.63 C-171.29 187.4 -171.93 189.17 -172.57 190.93 C-181.37 215.45 -181.37 215.45 -187.75 221.69 C-192.39 223.56 -196.08 223.86 -201 223 C-208.47 219.47 -214.21 213.19 -219.91 207.37 C-221.39 205.86 -222.87 204.37 -224.36 202.88 C-234.76 192.37 -234.76 192.37 -235.4 188.7 C-235.25 172.16 -229.12 157.24 -223.5 141.94 C-222.68 139.7 -221.87 137.46 -221.06 135.23 C-219.07 129.79 -217.08 124.35 -215.08 118.92 C-214.1 116.26 -213.12 113.6 -212.15 110.94 C-210.65 106.87 -209.14 102.81 -207.62 98.75 C-207.2 97.61 -206.78 96.47 -206.35 95.3 C-202.22 84.4 -197.75 78.96 -187.12 74.16 C-185.75 73.57 -184.39 73 -183.02 72.43 C-182.26 72.1 -181.5 71.78 -180.72 71.45 C-178.24 70.4 -175.74 69.36 -173.25 68.31 C-171.48 67.56 -169.7 66.82 -167.93 66.07 C-153.04 59.8 -138.1 53.68 -123.14 47.59 C-112.57 43.29 -102.03 38.94 -91.51 34.52 C-70.84 25.85 -50.02 17.52 -29.18 9.26 C-24.91 7.57 -20.64 5.86 -16.4 4.08 C-16.06 3.94 -16.06 3.94 -14.32 3.21 C-12.56 2.48 -10.79 1.73 -9.03 0.98 C-5.79 -0.07 -3.39 -0.34 0 0 Z M-26.9 37.22 C-27.69 37.51 -28.48 37.79 -29.29 38.08 C-30.16 38.4 -31.04 38.73 -31.94 39.06 C-32.41 39.24 -32.41 39.24 -34.82 40.12 C-59.75 49.43 -84.25 59.9 -108.78 70.21 C-117.82 74.01 -126.86 77.78 -135.94 81.49 C-136.82 81.85 -137.71 82.21 -138.62 82.58 C-142.8 84.29 -146.99 86 -151.18 87.7 C-155.46 89.44 -159.74 91.21 -164 93 C-164.64 93.27 -165.28 93.54 -165.94 93.81 C-167.73 94.57 -169.51 95.36 -171.29 96.14 C-171.78 96.36 -171.78 96.36 -174.29 97.45 C-179.83 100.62 -182.52 104.34 -184.73 110.24 C-184.97 110.88 -185.21 111.51 -185.46 112.17 C-186.32 114.44 -187.16 116.72 -188 119 C-188.71 120.91 -189.43 122.82 -190.15 124.73 C-192.15 130.08 -194.12 135.43 -196.09 140.79 C-197.32 144.15 -198.56 147.51 -199.81 150.88 C-200.6 153.02 -201.39 155.17 -202.18 157.32 C-202.36 157.82 -202.36 157.82 -203.3 160.35 C-203.64 161.28 -203.98 162.21 -204.33 163.17 C-204.48 163.58 -204.48 163.58 -205.24 165.64 C-206.02 168.08 -206.55 170.48 -207 173 C-203.25 176 -203.25 176 -201 176 C-200.7 175.12 -200.4 174.25 -200.09 173.34 C-198.94 170.03 -197.79 166.72 -196.63 163.41 C-196.13 161.99 -195.64 160.57 -195.15 159.15 C-185.71 131.73 -185.71 131.73 -178.14 126.79 C-177.52 126.55 -176.89 126.31 -176.25 126.06 C-175.64 125.81 -175.02 125.55 -174.39 125.29 C-166.66 124.36 -160.45 128.86 -154.25 132.81 C-136.75 143.58 -120.19 148.85 -99.48 144.21 C-87.77 140.86 -79.65 135.51 -71 127 C-70.37 126.38 -69.74 125.77 -69.09 125.13 C-54 109.15 -50.3 90.09 -50.54 68.91 C-50.52 61.35 -50.35 55.68 -45 50 C-42.65 47.94 -42.65 47.94 -40.38 46.56 C-39.62 46.09 -38.86 45.62 -38.09 45.13 C-34.97 43.44 -32.48 42.88 -28.99 42.9 C-28.61 42.9 -28.61 42.9 -26.69 42.91 C-26.3 42.92 -26.3 42.92 -24.31 42.94 C-23.52 42.94 -22.72 42.95 -21.9 42.95 C-19.93 42.96 -17.97 42.98 -16 43 C-15.67 41.68 -15.34 40.36 -15 39 C-19.02 35.55 -22.01 35.46 -26.9 37.22 Z " fill="#000000" transform="translate(1146,458)" />
<path d="M0 0 C1.25 0.68 2.5 1.36 3.75 2.04 C6.29 3.42 8.83 4.81 11.36 6.2 C14.64 7.99 17.93 9.77 21.22 11.54 C31.4 17.02 41.54 22.56 51.66 28.14 C53.38 29.09 55.11 30.04 56.83 30.99 C78.22 42.84 78.22 42.84 81 51.19 C81.42 56.23 81.42 60.07 78.57 64.49 C72.12 71.48 61.56 75.78 53.31 80.31 C52.13 80.97 50.95 81.62 49.77 82.27 C34.76 90.55 19.7 98.73 4.56 106.75 C4.19 106.95 4.19 106.95 2.32 107.94 C-9.42 114.13 -17.56 117.65 -30.79 114.19 C-35.91 112.59 -40.56 110.28 -45.31 107.81 C-46.35 107.29 -47.38 106.76 -48.44 106.22 C-56.47 102.08 -64.35 97.7 -72.19 93.2 C-80.68 88.33 -89.3 83.69 -97.96 79.12 C-119.05 67.9 -119.05 67.9 -122 61.19 C-123.19 56.59 -123.25 53.11 -122 48.5 C-117.12 40.41 -108.69 36.54 -100.62 32.19 C-99.42 31.53 -98.22 30.87 -97.02 30.21 C-95.16 29.2 -93.31 28.19 -91.46 27.18 C-86.45 24.44 -81.47 21.65 -76.49 18.85 C-66.71 13.33 -56.88 7.91 -47 2.56 C-45.93 1.98 -44.86 1.4 -43.76 0.8 C-25.84 -8.85 -18.21 -10.05 0 0 Z M-24.73 29.21 C-25.71 29.8 -26.69 30.39 -27.7 31 C-28.81 31.66 -29.93 32.31 -31.08 32.99 C-32.28 33.72 -33.48 34.46 -34.69 35.19 C-37.2 36.68 -39.71 38.15 -42.23 39.63 C-42.87 40.01 -43.51 40.39 -44.17 40.78 C-50.86 44.73 -57.7 48.41 -64.56 52.06 C-66.71 53.2 -68.86 54.35 -71 55.49 C-71.9 55.97 -72.79 56.44 -73.72 56.93 C-76 58.19 -76 58.19 -79 60.19 C-79 60.85 -79 61.51 -79 62.19 C-78.3 62.54 -77.61 62.9 -76.89 63.27 C-62.3 70.73 -47.88 78.38 -33.67 86.54 C-32.85 87 -32.03 87.47 -31.19 87.94 C-29.38 88.97 -27.59 90.04 -25.8 91.11 C-22.11 92.53 -19.65 92.47 -16 91.19 C-11.77 89.17 -7.74 86.85 -3.69 84.5 C-1.9 83.48 -0.12 82.47 1.67 81.46 C2.9 80.76 4.13 80.07 5.36 79.37 C12.08 75.55 18.88 71.9 25.69 68.25 C26.82 67.64 27.96 67.03 29.12 66.41 C31.75 65 34.37 63.59 37 62.19 C37 61.53 37 60.87 37 60.19 C36.25 59.78 35.5 59.36 34.73 58.94 C31.18 56.98 27.62 55.02 24.06 53.06 C23.41 52.71 22.77 52.35 22.1 51.98 C14.95 48.04 7.8 44.09 0.68 40.08 C-0.45 39.44 -1.57 38.81 -2.74 38.15 C-4.87 36.95 -7.01 35.74 -9.14 34.53 C-10.1 33.99 -11.07 33.44 -12.06 32.88 C-12.9 32.41 -13.74 31.93 -14.6 31.45 C-15.39 31.03 -16.18 30.62 -17 30.19 C-17.81 29.74 -18.62 29.3 -19.45 28.84 C-22 28.19 -22 28.19 -24.73 29.21 Z " fill="#000000" transform="translate(879,881.8125)" />
</svg>
